<svg version="1.1" xmlns="http://www.w3.org/2000/svg" xmlns:xlink="http://www.w3.org/1999/xlink" width="1528" height="896"><defs/><g transform="scale(1,1)"><rect fill="rgb(255,255,255)" stroke="none" x="0" y="0" width="1528" height="896" fill-opacity="1"/><path fill="rgb(192,192,192)" stroke="none" paint-order="stroke fill markers" d=" M 338.1329484981844 723.7292909162622 L 924.0051047941712 723.7292909162622 L 924.0051047941712 137.8571346202741 L 338.13294849818453 137.85713462027388 Z" fill-opacity="0.09803921568627451"/><path fill="none" stroke="rgb(192,192,192)" paint-order="fill stroke markers" d=" M 338.1329484981844 723.7292909162622 L 924.0051047941712 723.7292909162622 L 924.0051047941712 137.8571346202741 L 338.13294849818453 137.85713462027388 Z" stroke-opacity="0.6980392156862745" stroke-linecap="round" stroke-linejoin="round" stroke-miterlimit="10" stroke-width="2.5"/><path fill="none" stroke="rgb(0,0,0)" paint-order="fill stroke markers" d=" M 338.1329484981844 723.7292909162622 L 924.0051047941712 723.7292909162622" stroke-opacity="0.6980392156862745" stroke-linecap="round" stroke-linejoin="round" stroke-miterlimit="10" stroke-width="2.5"/><text fill="rgb(0,0,0)" stroke="none" font-family="geogebra-sans-serif, sans-serif" font-size="16px" font-style="normal" font-weight="normal" text-decoration="normal" x="631" y="739" text-anchor="start" dominant-baseline="alphabetic" fill-opacity="1">f</text><path fill="none" stroke="rgb(192,192,192)" paint-order="fill stroke markers" d=" M 338.1329484981844 723.7292909162622 L 924.0051047941712 723.7292909162622" stroke-opacity="0.6980392156862745" stroke-linecap="round" stroke-linejoin="round" stroke-miterlimit="10" stroke-width="2.5"/><path fill="none" stroke="rgb(204,0,0)" paint-order="fill stroke markers" d=" M 924.0051047941712 723.7292909162622 L 924.0051047941712 137.8571346202741" stroke-opacity="0.6980392156862745" stroke-linecap="round" stroke-linejoin="round" stroke-miterlimit="10" stroke-width="5"/><path fill="none" stroke="rgb(0,0,255)" paint-order="fill stroke markers" d=" M 924.0051047941712 137.8571346202741 L 338.13294849818453 137.85713462027388" stroke-opacity="0.6980392156862745" stroke-linecap="round" stroke-linejoin="round" stroke-miterlimit="10" stroke-width="5"/><path fill="none" stroke="rgb(192,192,192)" paint-order="fill stroke markers" d=" M 338.13294849818453 137.85713462027388 L 338.1329484981844 723.7292909162622" stroke-opacity="0.6980392156862745" stroke-linecap="round" stroke-linejoin="round" stroke-miterlimit="10" stroke-width="2.5"/><path fill="none" stroke="rgb(0,0,255)" paint-order="fill stroke markers" d=" M 338.13294849818453 196.44435024987274 L 924.0051047941713 196.44435024987274" stroke-opacity="0.6980392156862745" stroke-linecap="round" stroke-linejoin="round" stroke-miterlimit="10" stroke-width="4.5"/><path fill="none" stroke="rgb(0,0,255)" paint-order="fill stroke markers" d=" M 338.1329484981845 255.03156587947154 L 924.0051047941713 255.03156587947154" stroke-opacity="0.6980392156862745" stroke-linecap="round" stroke-linejoin="round" stroke-miterlimit="10" stroke-width="4"/><path fill="none" stroke="rgb(0,0,255)" paint-order="fill stroke markers" d=" M 338.1329484981845 313.6187815090704 L 924.0051047941713 313.6187815090704" stroke-opacity="0.6980392156862745" stroke-linecap="round" stroke-linejoin="round" stroke-miterlimit="10" stroke-width="3.5"/><path fill="none" stroke="rgb(0,0,255)" paint-order="fill stroke markers" d=" M 338.1329484981845 372.2059971386692 L 924.0051047941713 372.2059971386692" stroke-opacity="0.6980392156862745" stroke-linecap="round" stroke-linejoin="round" stroke-miterlimit="10" stroke-width="3"/><path fill="none" stroke="rgb(0,0,255)" paint-order="fill stroke markers" d=" M 338.1329484981845 430.79321276826806 L 924.0051047941712 430.79321276826806" stroke-opacity="0.6980392156862745" stroke-linecap="round" stroke-linejoin="round" stroke-miterlimit="10" stroke-width="2.5"/><path fill="none" stroke="rgb(0,0,255)" paint-order="fill stroke markers" d=" M 338.1329484981845 489.3804283978669 L 924.0051047941712 489.3804283978669" stroke-opacity="0.6980392156862745" stroke-linecap="round" stroke-linejoin="round" stroke-miterlimit="10" stroke-width="2"/><path fill="none" stroke="rgb(0,0,255)" paint-order="fill stroke markers" d=" M 338.1329484981845 547.9676440274657 L 924.0051047941712 547.9676440274657" stroke-opacity="0.6980392156862745" stroke-linecap="round" stroke-linejoin="round" stroke-miterlimit="10" stroke-width="1.5"/><path fill="none" stroke="rgb(0,0,255)" paint-order="fill stroke markers" d=" M 338.1329484981844 606.5548596570645 L 924.0051047941712 606.5548596570645" stroke-opacity="0.6980392156862745" stroke-linecap="round" stroke-linejoin="round" stroke-miterlimit="10"/><path fill="none" stroke="rgb(0,0,255)" paint-order="fill stroke markers" d=" M 338.1329484981844 665.1420752866634 L 924.0051047941712 665.1420752866634" stroke-opacity="0.6980392156862745" stroke-linecap="round" stroke-linejoin="round" stroke-miterlimit="10" stroke-width="0.5"/><path fill="none" stroke="rgb(204,0,0)" paint-order="fill stroke markers" d=" M 396.7201641277831 723.7292909162622 L 396.72016412778316 137.85713462027388" stroke-opacity="0.6980392156862745" stroke-linecap="round" stroke-linejoin="round" stroke-miterlimit="10" stroke-width="0.5"/><path fill="none" stroke="rgb(204,0,0)" paint-order="fill stroke markers" d=" M 455.3073797573818 723.7292909162622 L 455.3073797573818 137.85713462027388" stroke-opacity="0.6980392156862745" stroke-linecap="round" stroke-linejoin="round" stroke-miterlimit="10"/><path fill="none" stroke="rgb(204,0,0)" paint-order="fill stroke markers" d=" M 513.8945953869804 723.7292909162622 L 513.8945953869804 137.85713462027388" stroke-opacity="0.6980392156862745" stroke-linecap="round" stroke-linejoin="round" stroke-miterlimit="10" stroke-width="1.5"/><path fill="none" stroke="rgb(204,0,0)" paint-order="fill stroke markers" d=" M 572.4818110165792 723.7292909162622 L 572.4818110165792 137.85713462027388" stroke-opacity="0.6980392156862745" stroke-linecap="round" stroke-linejoin="round" stroke-miterlimit="10" stroke-width="2"/><path fill="none" stroke="rgb(204,0,0)" paint-order="fill stroke markers" d=" M 631.0690266461778 723.7292909162622 L 631.0690266461779 137.85713462027388" stroke-opacity="0.6980392156862745" stroke-linecap="round" stroke-linejoin="round" stroke-miterlimit="10" stroke-width="2.5"/><path fill="none" stroke="rgb(204,0,0)" paint-order="fill stroke markers" d=" M 689.6562422757765 723.7292909162622 L 689.6562422757765 137.85713462027388" stroke-opacity="0.6980392156862745" stroke-linecap="round" stroke-linejoin="round" stroke-miterlimit="10" stroke-width="3"/><path fill="none" stroke="rgb(204,0,0)" paint-order="fill stroke markers" d=" M 748.2434579053752 723.7292909162622 L 748.2434579053752 137.85713462027388" stroke-opacity="0.6980392156862745" stroke-linecap="round" stroke-linejoin="round" stroke-miterlimit="10" stroke-width="3.5"/><path fill="none" stroke="rgb(204,0,0)" paint-order="fill stroke markers" d=" M 806.8306735349738 723.7292909162622 L 806.8306735349738 137.85713462027388" stroke-opacity="0.6980392156862745" stroke-linecap="round" stroke-linejoin="round" stroke-miterlimit="10" stroke-width="4"/><path fill="none" stroke="rgb(204,0,0)" paint-order="fill stroke markers" d=" M 865.4178891645726 723.7292909162622 L 865.4178891645726 137.85713462027388" stroke-opacity="0.6980392156862745" stroke-linecap="round" stroke-linejoin="round" stroke-miterlimit="10" stroke-width="4.5"/><path fill="none" stroke="rgb(0,100,0)" paint-order="fill stroke markers" d=" M 338.1329484981844 665.1420752866634 L 396.7201641277831 723.7292909162622" stroke-opacity="0.6980392156862745" stroke-linecap="round" stroke-linejoin="round" stroke-miterlimit="10" stroke-width="6.5"/><path fill="none" stroke="rgb(0,100,0)" paint-order="fill stroke markers" d=" M 338.1329484981844 606.5548596570645 L 455.3073797573818 723.7292909162622" stroke-opacity="0.6980392156862745" stroke-linecap="round" stroke-linejoin="round" stroke-miterlimit="10" stroke-width="6.5"/><path fill="none" stroke="rgb(0,100,0)" paint-order="fill stroke markers" d=" M 338.1329484981845 547.9676440274657 L 513.8945953869804 723.7292909162622" stroke-opacity="0.6980392156862745" stroke-linecap="round" stroke-linejoin="round" stroke-miterlimit="10" stroke-width="6"/><path fill="none" stroke="rgb(0,100,0)" paint-order="fill stroke markers" d=" M 338.1329484981845 489.3804283978669 L 572.4818110165792 723.7292909162622" stroke-opacity="0.6980392156862745" stroke-linecap="round" stroke-linejoin="round" stroke-miterlimit="10" stroke-width="5.5"/><path fill="none" stroke="rgb(0,100,0)" paint-order="fill stroke markers" d=" M 338.1329484981845 430.79321276826806 L 631.0690266461778 723.7292909162622" stroke-opacity="0.6980392156862745" stroke-linecap="round" stroke-linejoin="round" stroke-miterlimit="10" stroke-width="5"/><path fill="none" stroke="rgb(0,100,0)" paint-order="fill stroke markers" d=" M 338.1329484981845 372.2059971386692 L 689.6562422757765 723.7292909162622" stroke-opacity="0.6980392156862745" stroke-linecap="round" stroke-linejoin="round" stroke-miterlimit="10" stroke-width="4.5"/><path fill="none" stroke="rgb(0,100,0)" paint-order="fill stroke markers" d=" M 338.1329484981845 313.6187815090704 L 748.2434579053752 723.7292909162622" stroke-opacity="0.6980392156862745" stroke-linecap="round" stroke-linejoin="round" stroke-miterlimit="10" stroke-width="4"/><path fill="none" stroke="rgb(0,100,0)" paint-order="fill stroke markers" d=" M 338.1329484981845 255.03156587947154 L 806.8306735349738 723.7292909162622" stroke-opacity="0.6980392156862745" stroke-linecap="round" stroke-linejoin="round" stroke-miterlimit="10" stroke-width="3.5"/><path fill="none" stroke="rgb(0,100,0)" paint-order="fill stroke markers" d=" M 338.13294849818453 196.44435024987274 L 865.4178891645726 723.7292909162622" stroke-opacity="0.6980392156862745" stroke-linecap="round" stroke-linejoin="round" stroke-miterlimit="10" stroke-width="3"/><path fill="none" stroke="rgb(0,100,0)" paint-order="fill stroke markers" d=" M 338.13294849818453 137.85713462027388 L 924.0051047941712 723.7292909162622" stroke-opacity="0.6980392156862745" stroke-linecap="round" stroke-linejoin="round" stroke-miterlimit="10" stroke-width="2.5"/><path fill="none" stroke="rgb(0,100,0)" paint-order="fill stroke markers" d=" M 396.72016412778316 137.85713462027388 L 924.0051047941712 665.1420752866634" stroke-opacity="0.6980392156862745" stroke-linecap="round" stroke-linejoin="round" stroke-miterlimit="10" stroke-width="2"/><path fill="none" stroke="rgb(0,100,0)" paint-order="fill stroke markers" d=" M 455.3073797573818 137.85713462027388 L 924.0051047941712 606.5548596570645" stroke-opacity="0.6980392156862745" stroke-linecap="round" stroke-linejoin="round" stroke-miterlimit="10" stroke-width="1.5"/><path fill="none" stroke="rgb(0,100,0)" paint-order="fill stroke markers" d=" M 513.8945953869804 137.85713462027388 L 924.0051047941712 547.9676440274657" stroke-opacity="0.6980392156862745" stroke-linecap="round" stroke-linejoin="round" stroke-miterlimit="10"/><path fill="none" stroke="rgb(0,100,0)" paint-order="fill stroke markers" d=" M 572.4818110165792 137.85713462027388 L 924.0051047941712 489.3804283978669" stroke-opacity="0.6980392156862745" stroke-linecap="round" stroke-linejoin="round" stroke-miterlimit="10" stroke-width="0.5"/><path fill="none" stroke="rgb(0,100,0)" paint-order="fill stroke markers" d=" M 631.0690266461779 137.85713462027388 L 924.0051047941712 430.79321276826806" stroke-opacity="1" stroke-linecap="round" stroke-linejoin="round" stroke-miterlimit="10" stroke-width="0.5"/><path fill="none" stroke="rgb(0,100,0)" paint-order="fill stroke markers" d=" M 689.6562422757765 137.85713462027388 L 924.0051047941713 372.2059971386692" stroke-opacity="0.6980392156862745" stroke-linecap="round" stroke-linejoin="round" stroke-miterlimit="10" stroke-width="0.5"/><path fill="none" stroke="rgb(0,100,0)" paint-order="fill stroke markers" d=" M 748.2434579053752 137.85713462027388 L 924.0051047941713 313.6187815090704" stroke-opacity="0.6980392156862745" stroke-linecap="round" stroke-linejoin="round" stroke-miterlimit="10" stroke-width="0.5"/><path fill="none" stroke="rgb(0,100,0)" paint-order="fill stroke markers" d=" M 806.8306735349738 137.85713462027388 L 924.0051047941713 255.03156587947154" stroke-opacity="0.6980392156862745" stroke-linecap="round" stroke-linejoin="round" stroke-miterlimit="10" stroke-width="0.5"/><path fill="none" stroke="rgb(0,100,0)" paint-order="fill stroke markers" d=" M 865.4178891645726 137.85713462027388 L 924.0051047941713 196.44435024987274" stroke-opacity="0.6980392156862745" stroke-linecap="round" stroke-linejoin="round" stroke-miterlimit="10" stroke-width="0.5"/><path fill="rgb(68,68,68)" stroke="none" paint-order="stroke fill markers" d=" M 342.1329484981844 723.7292909162622 C 342.1329484981844 725.9384299155854 340.3420874975076 727.7292909162622 338.1329484981844 727.7292909162622 C 335.92380949886126 727.7292909162622 334.1329484981844 725.9384299155854 334.1329484981844 723.7292909162622 C 334.1329484981844 721.5201519169391 335.92380949886126 719.7292909162622 338.1329484981844 719.7292909162622 C 340.3420874975076 719.7292909162622 342.1329484981844 721.5201519169391 342.1329484981844 723.7292909162622 Z" fill-opacity="1"/><path fill="none" stroke="rgb(0,0,0)" paint-order="fill stroke markers" d=" M 342.1329484981844 723.7292909162622 C 342.1329484981844 725.9384299155854 340.3420874975076 727.7292909162622 338.1329484981844 727.7292909162622 C 335.92380949886126 727.7292909162622 334.1329484981844 725.9384299155854 334.1329484981844 723.7292909162622 C 334.1329484981844 721.5201519169391 335.92380949886126 719.7292909162622 338.1329484981844 719.7292909162622 C 340.3420874975076 719.7292909162622 342.1329484981844 721.5201519169391 342.1329484981844 723.7292909162622 Z" stroke-opacity="1" stroke-linecap="round" stroke-linejoin="round" stroke-miterlimit="10"/><text fill="rgb(68,68,68)" stroke="none" font-family="geogebra-sans-serif, sans-serif" font-size="16px" font-style="normal" font-weight="normal" text-decoration="normal" x="342" y="716" text-anchor="start" dominant-baseline="alphabetic" fill-opacity="1">A</text><path fill="rgb(125,125,255)" stroke="none" paint-order="stroke fill markers" d=" M 929.0051047941712 723.7292909162622 C 929.0051047941712 726.4907146654162 926.7665285433252 728.7292909162622 924.0051047941712 728.7292909162622 C 921.2436810450172 728.7292909162622 919.0051047941712 726.4907146654162 919.0051047941712 723.7292909162622 C 919.0051047941712 720.9678671671082 921.2436810450172 718.7292909162622 924.0051047941712 718.7292909162622 C 926.7665285433252 718.7292909162622 929.0051047941712 720.9678671671082 929.0051047941712 723.7292909162622 Z" fill-opacity="1"/><path fill="none" stroke="rgb(0,0,0)" paint-order="fill stroke markers" d=" M 929.0051047941712 723.7292909162622 C 929.0051047941712 726.4907146654162 926.7665285433252 728.7292909162622 924.0051047941712 728.7292909162622 C 921.2436810450172 728.7292909162622 919.0051047941712 726.4907146654162 919.0051047941712 723.7292909162622 C 919.0051047941712 720.9678671671082 921.2436810450172 718.7292909162622 924.0051047941712 718.7292909162622 C 926.7665285433252 718.7292909162622 929.0051047941712 720.9678671671082 929.0051047941712 723.7292909162622 Z" stroke-opacity="1" stroke-linecap="round" stroke-linejoin="round" stroke-miterlimit="10"/><text fill="rgb(125,125,255)" stroke="none" font-family="geogebra-sans-serif, sans-serif" font-size="16px" font-style="normal" font-weight="normal" text-decoration="normal" x="928" y="714" text-anchor="start" dominant-baseline="alphabetic" fill-opacity="1">B</text><path fill="rgb(68,68,68)" stroke="none" paint-order="stroke fill markers" d=" M 928.0051047941712 137.8571346202741 C 928.0051047941712 140.06627361959727 926.2142437934943 141.8571346202741 924.0051047941712 141.8571346202741 C 921.795965794848 141.8571346202741 920.0051047941712 140.06627361959727 920.0051047941712 137.8571346202741 C 920.0051047941712 135.64799562095092 921.795965794848 133.8571346202741 924.0051047941712 133.8571346202741 C 926.2142437934943 133.8571346202741 928.0051047941712 135.64799562095092 928.0051047941712 137.8571346202741 Z" fill-opacity="1"/><path fill="none" stroke="rgb(0,0,0)" paint-order="fill stroke markers" d=" M 928.0051047941712 137.8571346202741 C 928.0051047941712 140.06627361959727 926.2142437934943 141.8571346202741 924.0051047941712 141.8571346202741 C 921.795965794848 141.8571346202741 920.0051047941712 140.06627361959727 920.0051047941712 137.8571346202741 C 920.0051047941712 135.64799562095092 921.795965794848 133.8571346202741 924.0051047941712 133.8571346202741 C 926.2142437934943 133.8571346202741 928.0051047941712 135.64799562095092 928.0051047941712 137.8571346202741 Z" stroke-opacity="1" stroke-linecap="round" stroke-linejoin="round" stroke-miterlimit="10"/><text fill="rgb(68,68,68)" stroke="none" font-family="geogebra-sans-serif, sans-serif" font-size="16px" font-style="normal" font-weight="normal" text-decoration="normal" x="928" y="130" text-anchor="start" dominant-baseline="alphabetic" fill-opacity="1">C</text><path fill="rgb(68,68,68)" stroke="none" paint-order="stroke fill markers" d=" M 342.13294849818453 137.85713462027388 C 342.13294849818453 140.06627361959704 340.3420874975077 141.85713462027388 338.13294849818453 141.85713462027388 C 335.9238094988614 141.85713462027388 334.13294849818453 140.06627361959704 334.13294849818453 137.85713462027388 C 334.13294849818453 135.6479956209507 335.9238094988614 133.85713462027388 338.13294849818453 133.85713462027388 C 340.3420874975077 133.85713462027388 342.13294849818453 135.6479956209507 342.13294849818453 137.85713462027388 Z" fill-opacity="1"/><path fill="none" stroke="rgb(0,0,0)" paint-order="fill stroke markers" d=" M 342.13294849818453 137.85713462027388 C 342.13294849818453 140.06627361959704 340.3420874975077 141.85713462027388 338.13294849818453 141.85713462027388 C 335.9238094988614 141.85713462027388 334.13294849818453 140.06627361959704 334.13294849818453 137.85713462027388 C 334.13294849818453 135.6479956209507 335.9238094988614 133.85713462027388 338.13294849818453 133.85713462027388 C 340.3420874975077 133.85713462027388 342.13294849818453 135.6479956209507 342.13294849818453 137.85713462027388 Z" stroke-opacity="1" stroke-linecap="round" stroke-linejoin="round" stroke-miterlimit="10"/><text fill="rgb(68,68,68)" stroke="none" font-family="geogebra-sans-serif, sans-serif" font-size="16px" font-style="normal" font-weight="normal" text-decoration="normal" x="342" y="130" text-anchor="start" dominant-baseline="alphabetic" fill-opacity="1">D</text><path fill="rgb(125,125,255)" stroke="none" paint-order="stroke fill markers" d=" M 343.13294849818453 196.44435024987274 C 343.13294849818453 199.20577399902672 340.8943722473385 201.44435024987274 338.13294849818453 201.44435024987274 C 335.3715247490306 201.44435024987274 333.13294849818453 199.20577399902672 333.13294849818453 196.44435024987274 C 333.13294849818453 193.68292650071876 335.3715247490306 191.44435024987274 338.13294849818453 191.44435024987274 C 340.8943722473385 191.44435024987274 343.13294849818453 193.68292650071876 343.13294849818453 196.44435024987274 Z" fill-opacity="1"/><path fill="none" stroke="rgb(0,0,0)" paint-order="fill stroke markers" d=" M 343.13294849818453 196.44435024987274 C 343.13294849818453 199.20577399902672 340.8943722473385 201.44435024987274 338.13294849818453 201.44435024987274 C 335.3715247490306 201.44435024987274 333.13294849818453 199.20577399902672 333.13294849818453 196.44435024987274 C 333.13294849818453 193.68292650071876 335.3715247490306 191.44435024987274 338.13294849818453 191.44435024987274 C 340.8943722473385 191.44435024987274 343.13294849818453 193.68292650071876 343.13294849818453 196.44435024987274 Z" stroke-opacity="1" stroke-linecap="round" stroke-linejoin="round" stroke-miterlimit="10"/><text fill="rgb(125,125,255)" stroke="none" font-family="geogebra-sans-serif, sans-serif" font-size="16px" font-style="normal" font-weight="normal" text-decoration="normal" x="342" y="186" text-anchor="start" dominant-baseline="alphabetic" fill-opacity="1">E</text><path fill="rgb(125,125,255)" stroke="none" paint-order="stroke fill markers" d=" M 929.0051047941713 196.44435024987274 C 929.0051047941713 199.20577399902672 926.7665285433253 201.44435024987274 924.0051047941713 201.44435024987274 C 921.2436810450173 201.44435024987274 919.0051047941713 199.20577399902672 919.0051047941713 196.44435024987274 C 919.0051047941713 193.68292650071876 921.2436810450173 191.44435024987274 924.0051047941713 191.44435024987274 C 926.7665285433253 191.44435024987274 929.0051047941713 193.68292650071876 929.0051047941713 196.44435024987274 Z" fill-opacity="1"/><path fill="none" stroke="rgb(0,0,0)" paint-order="fill stroke markers" d=" M 929.0051047941713 196.44435024987274 C 929.0051047941713 199.20577399902672 926.7665285433253 201.44435024987274 924.0051047941713 201.44435024987274 C 921.2436810450173 201.44435024987274 919.0051047941713 199.20577399902672 919.0051047941713 196.44435024987274 C 919.0051047941713 193.68292650071876 921.2436810450173 191.44435024987274 924.0051047941713 191.44435024987274 C 926.7665285433253 191.44435024987274 929.0051047941713 193.68292650071876 929.0051047941713 196.44435024987274 Z" stroke-opacity="1" stroke-linecap="round" stroke-linejoin="round" stroke-miterlimit="10"/><text fill="rgb(125,125,255)" stroke="none" font-family="geogebra-sans-serif, sans-serif" font-size="16px" font-style="normal" font-weight="normal" text-decoration="normal" x="928" y="186" text-anchor="start" dominant-baseline="alphabetic" fill-opacity="1">F</text><path fill="rgb(125,125,255)" stroke="none" paint-order="stroke fill markers" d=" M 343.1329484981845 255.03156587947154 C 343.1329484981845 257.7929896286255 340.8943722473384 260.03156587947154 338.1329484981845 260.03156587947154 C 335.3715247490305 260.03156587947154 333.1329484981845 257.7929896286255 333.1329484981845 255.03156587947154 C 333.1329484981845 252.27014213031757 335.3715247490305 250.03156587947154 338.1329484981845 250.03156587947154 C 340.8943722473384 250.03156587947154 343.1329484981845 252.27014213031757 343.1329484981845 255.03156587947154 Z" fill-opacity="1"/><path fill="none" stroke="rgb(0,0,0)" paint-order="fill stroke markers" d=" M 343.1329484981845 255.03156587947154 C 343.1329484981845 257.7929896286255 340.8943722473384 260.03156587947154 338.1329484981845 260.03156587947154 C 335.3715247490305 260.03156587947154 333.1329484981845 257.7929896286255 333.1329484981845 255.03156587947154 C 333.1329484981845 252.27014213031757 335.3715247490305 250.03156587947154 338.1329484981845 250.03156587947154 C 340.8943722473384 250.03156587947154 343.1329484981845 252.27014213031757 343.1329484981845 255.03156587947154 Z" stroke-opacity="1" stroke-linecap="round" stroke-linejoin="round" stroke-miterlimit="10"/><text fill="rgb(125,125,255)" stroke="none" font-family="geogebra-sans-serif, sans-serif" font-size="16px" font-style="normal" font-weight="normal" text-decoration="normal" x="342" y="245" text-anchor="start" dominant-baseline="alphabetic" fill-opacity="1">G</text><path fill="rgb(125,125,255)" stroke="none" paint-order="stroke fill markers" d=" M 929.0051047941713 255.03156587947154 C 929.0051047941713 257.7929896286255 926.7665285433253 260.03156587947154 924.0051047941713 260.03156587947154 C 921.2436810450173 260.03156587947154 919.0051047941713 257.7929896286255 919.0051047941713 255.03156587947154 C 919.0051047941713 252.27014213031757 921.2436810450173 250.03156587947154 924.0051047941713 250.03156587947154 C 926.7665285433253 250.03156587947154 929.0051047941713 252.27014213031757 929.0051047941713 255.03156587947154 Z" fill-opacity="1"/><path fill="none" stroke="rgb(0,0,0)" paint-order="fill stroke markers" d=" M 929.0051047941713 255.03156587947154 C 929.0051047941713 257.7929896286255 926.7665285433253 260.03156587947154 924.0051047941713 260.03156587947154 C 921.2436810450173 260.03156587947154 919.0051047941713 257.7929896286255 919.0051047941713 255.03156587947154 C 919.0051047941713 252.27014213031757 921.2436810450173 250.03156587947154 924.0051047941713 250.03156587947154 C 926.7665285433253 250.03156587947154 929.0051047941713 252.27014213031757 929.0051047941713 255.03156587947154 Z" stroke-opacity="1" stroke-linecap="round" stroke-linejoin="round" stroke-miterlimit="10"/><text fill="rgb(125,125,255)" stroke="none" font-family="geogebra-sans-serif, sans-serif" font-size="16px" font-style="normal" font-weight="normal" text-decoration="normal" x="928" y="245" text-anchor="start" dominant-baseline="alphabetic" fill-opacity="1">H</text><path fill="rgb(125,125,255)" stroke="none" paint-order="stroke fill markers" d=" M 343.1329484981845 313.6187815090704 C 343.1329484981845 316.38020525822435 340.8943722473384 318.6187815090704 338.1329484981845 318.6187815090704 C 335.3715247490305 318.6187815090704 333.1329484981845 316.38020525822435 333.1329484981845 313.6187815090704 C 333.1329484981845 310.85735775991645 335.3715247490305 308.6187815090704 338.1329484981845 308.6187815090704 C 340.8943722473384 308.6187815090704 343.1329484981845 310.85735775991645 343.1329484981845 313.6187815090704 Z" fill-opacity="1"/><path fill="none" stroke="rgb(0,0,0)" paint-order="fill stroke markers" d=" M 343.1329484981845 313.6187815090704 C 343.1329484981845 316.38020525822435 340.8943722473384 318.6187815090704 338.1329484981845 318.6187815090704 C 335.3715247490305 318.6187815090704 333.1329484981845 316.38020525822435 333.1329484981845 313.6187815090704 C 333.1329484981845 310.85735775991645 335.3715247490305 308.6187815090704 338.1329484981845 308.6187815090704 C 340.8943722473384 308.6187815090704 343.1329484981845 310.85735775991645 343.1329484981845 313.6187815090704 Z" stroke-opacity="1" stroke-linecap="round" stroke-linejoin="round" stroke-miterlimit="10"/><text fill="rgb(125,125,255)" stroke="none" font-family="geogebra-sans-serif, sans-serif" font-size="16px" font-style="normal" font-weight="normal" text-decoration="normal" x="342" y="304" text-anchor="start" dominant-baseline="alphabetic" fill-opacity="1">I</text><path fill="rgb(125,125,255)" stroke="none" paint-order="stroke fill markers" d=" M 929.0051047941713 313.6187815090704 C 929.0051047941713 316.38020525822435 926.7665285433253 318.6187815090704 924.0051047941713 318.6187815090704 C 921.2436810450173 318.6187815090704 919.0051047941713 316.38020525822435 919.0051047941713 313.6187815090704 C 919.0051047941713 310.85735775991645 921.2436810450173 308.6187815090704 924.0051047941713 308.6187815090704 C 926.7665285433253 308.6187815090704 929.0051047941713 310.85735775991645 929.0051047941713 313.6187815090704 Z" fill-opacity="1"/><path fill="none" stroke="rgb(0,0,0)" paint-order="fill stroke markers" d=" M 929.0051047941713 313.6187815090704 C 929.0051047941713 316.38020525822435 926.7665285433253 318.6187815090704 924.0051047941713 318.6187815090704 C 921.2436810450173 318.6187815090704 919.0051047941713 316.38020525822435 919.0051047941713 313.6187815090704 C 919.0051047941713 310.85735775991645 921.2436810450173 308.6187815090704 924.0051047941713 308.6187815090704 C 926.7665285433253 308.6187815090704 929.0051047941713 310.85735775991645 929.0051047941713 313.6187815090704 Z" stroke-opacity="1" stroke-linecap="round" stroke-linejoin="round" stroke-miterlimit="10"/><text fill="rgb(125,125,255)" stroke="none" font-family="geogebra-sans-serif, sans-serif" font-size="16px" font-style="normal" font-weight="normal" text-decoration="normal" x="928" y="304" text-anchor="start" dominant-baseline="alphabetic" fill-opacity="1">J</text><path fill="rgb(125,125,255)" stroke="none" paint-order="stroke fill markers" d=" M 343.1329484981845 372.2059971386692 C 343.1329484981845 374.96742088782315 340.8943722473384 377.2059971386692 338.1329484981845 377.2059971386692 C 335.3715247490305 377.2059971386692 333.1329484981845 374.96742088782315 333.1329484981845 372.2059971386692 C 333.1329484981845 369.44457338951526 335.3715247490305 367.2059971386692 338.1329484981845 367.2059971386692 C 340.8943722473384 367.2059971386692 343.1329484981845 369.44457338951526 343.1329484981845 372.2059971386692 Z" fill-opacity="1"/><path fill="none" stroke="rgb(0,0,0)" paint-order="fill stroke markers" d=" M 343.1329484981845 372.2059971386692 C 343.1329484981845 374.96742088782315 340.8943722473384 377.2059971386692 338.1329484981845 377.2059971386692 C 335.3715247490305 377.2059971386692 333.1329484981845 374.96742088782315 333.1329484981845 372.2059971386692 C 333.1329484981845 369.44457338951526 335.3715247490305 367.2059971386692 338.1329484981845 367.2059971386692 C 340.8943722473384 367.2059971386692 343.1329484981845 369.44457338951526 343.1329484981845 372.2059971386692 Z" stroke-opacity="1" stroke-linecap="round" stroke-linejoin="round" stroke-miterlimit="10"/><text fill="rgb(125,125,255)" stroke="none" font-family="geogebra-sans-serif, sans-serif" font-size="16px" font-style="normal" font-weight="normal" text-decoration="normal" x="342" y="362" text-anchor="start" dominant-baseline="alphabetic" fill-opacity="1">K</text><path fill="rgb(125,125,255)" stroke="none" paint-order="stroke fill markers" d=" M 929.0051047941713 372.2059971386692 C 929.0051047941713 374.96742088782315 926.7665285433253 377.2059971386692 924.0051047941713 377.2059971386692 C 921.2436810450173 377.2059971386692 919.0051047941713 374.96742088782315 919.0051047941713 372.2059971386692 C 919.0051047941713 369.44457338951526 921.2436810450173 367.2059971386692 924.0051047941713 367.2059971386692 C 926.7665285433253 367.2059971386692 929.0051047941713 369.44457338951526 929.0051047941713 372.2059971386692 Z" fill-opacity="1"/><path fill="none" stroke="rgb(0,0,0)" paint-order="fill stroke markers" d=" M 929.0051047941713 372.2059971386692 C 929.0051047941713 374.96742088782315 926.7665285433253 377.2059971386692 924.0051047941713 377.2059971386692 C 921.2436810450173 377.2059971386692 919.0051047941713 374.96742088782315 919.0051047941713 372.2059971386692 C 919.0051047941713 369.44457338951526 921.2436810450173 367.2059971386692 924.0051047941713 367.2059971386692 C 926.7665285433253 367.2059971386692 929.0051047941713 369.44457338951526 929.0051047941713 372.2059971386692 Z" stroke-opacity="1" stroke-linecap="round" stroke-linejoin="round" stroke-miterlimit="10"/><text fill="rgb(125,125,255)" stroke="none" font-family="geogebra-sans-serif, sans-serif" font-size="16px" font-style="normal" font-weight="normal" text-decoration="normal" x="928" y="362" text-anchor="start" dominant-baseline="alphabetic" fill-opacity="1">L</text><path fill="rgb(125,125,255)" stroke="none" paint-order="stroke fill markers" d=" M 343.1329484981845 430.79321276826806 C 343.1329484981845 433.554636517422 340.8943722473384 435.79321276826806 338.1329484981845 435.79321276826806 C 335.3715247490305 435.79321276826806 333.1329484981845 433.554636517422 333.1329484981845 430.79321276826806 C 333.1329484981845 428.0317890191141 335.3715247490305 425.79321276826806 338.1329484981845 425.79321276826806 C 340.8943722473384 425.79321276826806 343.1329484981845 428.0317890191141 343.1329484981845 430.79321276826806 Z" fill-opacity="1"/><path fill="none" stroke="rgb(0,0,0)" paint-order="fill stroke markers" d=" M 343.1329484981845 430.79321276826806 C 343.1329484981845 433.554636517422 340.8943722473384 435.79321276826806 338.1329484981845 435.79321276826806 C 335.3715247490305 435.79321276826806 333.1329484981845 433.554636517422 333.1329484981845 430.79321276826806 C 333.1329484981845 428.0317890191141 335.3715247490305 425.79321276826806 338.1329484981845 425.79321276826806 C 340.8943722473384 425.79321276826806 343.1329484981845 428.0317890191141 343.1329484981845 430.79321276826806 Z" stroke-opacity="1" stroke-linecap="round" stroke-linejoin="round" stroke-miterlimit="10"/><text fill="rgb(125,125,255)" stroke="none" font-family="geogebra-sans-serif, sans-serif" font-size="16px" font-style="normal" font-weight="normal" text-decoration="normal" x="342" y="421" text-anchor="start" dominant-baseline="alphabetic" fill-opacity="1">M</text><path fill="rgb(125,125,255)" stroke="none" paint-order="stroke fill markers" d=" M 929.0051047941712 430.79321276826806 C 929.0051047941712 433.554636517422 926.7665285433252 435.79321276826806 924.0051047941712 435.79321276826806 C 921.2436810450172 435.79321276826806 919.0051047941712 433.554636517422 919.0051047941712 430.79321276826806 C 919.0051047941712 428.0317890191141 921.2436810450172 425.79321276826806 924.0051047941712 425.79321276826806 C 926.7665285433252 425.79321276826806 929.0051047941712 428.0317890191141 929.0051047941712 430.79321276826806 Z" fill-opacity="1"/><path fill="none" stroke="rgb(0,0,0)" paint-order="fill stroke markers" d=" M 929.0051047941712 430.79321276826806 C 929.0051047941712 433.554636517422 926.7665285433252 435.79321276826806 924.0051047941712 435.79321276826806 C 921.2436810450172 435.79321276826806 919.0051047941712 433.554636517422 919.0051047941712 430.79321276826806 C 919.0051047941712 428.0317890191141 921.2436810450172 425.79321276826806 924.0051047941712 425.79321276826806 C 926.7665285433252 425.79321276826806 929.0051047941712 428.0317890191141 929.0051047941712 430.79321276826806 Z" stroke-opacity="1" stroke-linecap="round" stroke-linejoin="round" stroke-miterlimit="10"/><text fill="rgb(125,125,255)" stroke="none" font-family="geogebra-sans-serif, sans-serif" font-size="16px" font-style="normal" font-weight="normal" text-decoration="normal" x="928" y="421" text-anchor="start" dominant-baseline="alphabetic" fill-opacity="1">N</text><path fill="rgb(125,125,255)" stroke="none" paint-order="stroke fill markers" d=" M 343.1329484981845 489.3804283978669 C 343.1329484981845 492.14185214702087 340.8943722473384 494.3804283978669 338.1329484981845 494.3804283978669 C 335.3715247490305 494.3804283978669 333.1329484981845 492.14185214702087 333.1329484981845 489.3804283978669 C 333.1329484981845 486.619004648713 335.3715247490305 484.3804283978669 338.1329484981845 484.3804283978669 C 340.8943722473384 484.3804283978669 343.1329484981845 486.619004648713 343.1329484981845 489.3804283978669 Z" fill-opacity="1"/><path fill="none" stroke="rgb(0,0,0)" paint-order="fill stroke markers" d=" M 343.1329484981845 489.3804283978669 C 343.1329484981845 492.14185214702087 340.8943722473384 494.3804283978669 338.1329484981845 494.3804283978669 C 335.3715247490305 494.3804283978669 333.1329484981845 492.14185214702087 333.1329484981845 489.3804283978669 C 333.1329484981845 486.619004648713 335.3715247490305 484.3804283978669 338.1329484981845 484.3804283978669 C 340.8943722473384 484.3804283978669 343.1329484981845 486.619004648713 343.1329484981845 489.3804283978669 Z" stroke-opacity="1" stroke-linecap="round" stroke-linejoin="round" stroke-miterlimit="10"/><text fill="rgb(125,125,255)" stroke="none" font-family="geogebra-sans-serif, sans-serif" font-size="16px" font-style="normal" font-weight="normal" text-decoration="normal" x="342" y="479" text-anchor="start" dominant-baseline="alphabetic" fill-opacity="1">O</text><path fill="rgb(125,125,255)" stroke="none" paint-order="stroke fill markers" d=" M 929.0051047941712 489.3804283978669 C 929.0051047941712 492.14185214702087 926.7665285433252 494.3804283978669 924.0051047941712 494.3804283978669 C 921.2436810450172 494.3804283978669 919.0051047941712 492.14185214702087 919.0051047941712 489.3804283978669 C 919.0051047941712 486.619004648713 921.2436810450172 484.3804283978669 924.0051047941712 484.3804283978669 C 926.7665285433252 484.3804283978669 929.0051047941712 486.619004648713 929.0051047941712 489.3804283978669 Z" fill-opacity="1"/><path fill="none" stroke="rgb(0,0,0)" paint-order="fill stroke markers" d=" M 929.0051047941712 489.3804283978669 C 929.0051047941712 492.14185214702087 926.7665285433252 494.3804283978669 924.0051047941712 494.3804283978669 C 921.2436810450172 494.3804283978669 919.0051047941712 492.14185214702087 919.0051047941712 489.3804283978669 C 919.0051047941712 486.619004648713 921.2436810450172 484.3804283978669 924.0051047941712 484.3804283978669 C 926.7665285433252 484.3804283978669 929.0051047941712 486.619004648713 929.0051047941712 489.3804283978669 Z" stroke-opacity="1" stroke-linecap="round" stroke-linejoin="round" stroke-miterlimit="10"/><text fill="rgb(125,125,255)" stroke="none" font-family="geogebra-sans-serif, sans-serif" font-size="16px" font-style="normal" font-weight="normal" text-decoration="normal" x="928" y="479" text-anchor="start" dominant-baseline="alphabetic" fill-opacity="1">P</text><path fill="rgb(125,125,255)" stroke="none" paint-order="stroke fill markers" d=" M 343.1329484981845 547.9676440274657 C 343.1329484981845 550.7290677766197 340.8943722473384 552.9676440274657 338.1329484981845 552.9676440274657 C 335.3715247490305 552.9676440274657 333.1329484981845 550.7290677766197 333.1329484981845 547.9676440274657 C 333.1329484981845 545.2062202783117 335.3715247490305 542.9676440274657 338.1329484981845 542.9676440274657 C 340.8943722473384 542.9676440274657 343.1329484981845 545.2062202783117 343.1329484981845 547.9676440274657 Z" fill-opacity="1"/><path fill="none" stroke="rgb(0,0,0)" paint-order="fill stroke markers" d=" M 343.1329484981845 547.9676440274657 C 343.1329484981845 550.7290677766197 340.8943722473384 552.9676440274657 338.1329484981845 552.9676440274657 C 335.3715247490305 552.9676440274657 333.1329484981845 550.7290677766197 333.1329484981845 547.9676440274657 C 333.1329484981845 545.2062202783117 335.3715247490305 542.9676440274657 338.1329484981845 542.9676440274657 C 340.8943722473384 542.9676440274657 343.1329484981845 545.2062202783117 343.1329484981845 547.9676440274657 Z" stroke-opacity="1" stroke-linecap="round" stroke-linejoin="round" stroke-miterlimit="10"/><text fill="rgb(125,125,255)" stroke="none" font-family="geogebra-sans-serif, sans-serif" font-size="16px" font-style="normal" font-weight="normal" text-decoration="normal" x="342" y="538" text-anchor="start" dominant-baseline="alphabetic" fill-opacity="1">Q</text><path fill="rgb(125,125,255)" stroke="none" paint-order="stroke fill markers" d=" M 929.0051047941712 547.9676440274657 C 929.0051047941712 550.7290677766197 926.7665285433252 552.9676440274657 924.0051047941712 552.9676440274657 C 921.2436810450172 552.9676440274657 919.0051047941712 550.7290677766197 919.0051047941712 547.9676440274657 C 919.0051047941712 545.2062202783117 921.2436810450172 542.9676440274657 924.0051047941712 542.9676440274657 C 926.7665285433252 542.9676440274657 929.0051047941712 545.2062202783117 929.0051047941712 547.9676440274657 Z" fill-opacity="1"/><path fill="none" stroke="rgb(0,0,0)" paint-order="fill stroke markers" d=" M 929.0051047941712 547.9676440274657 C 929.0051047941712 550.7290677766197 926.7665285433252 552.9676440274657 924.0051047941712 552.9676440274657 C 921.2436810450172 552.9676440274657 919.0051047941712 550.7290677766197 919.0051047941712 547.9676440274657 C 919.0051047941712 545.2062202783117 921.2436810450172 542.9676440274657 924.0051047941712 542.9676440274657 C 926.7665285433252 542.9676440274657 929.0051047941712 545.2062202783117 929.0051047941712 547.9676440274657 Z" stroke-opacity="1" stroke-linecap="round" stroke-linejoin="round" stroke-miterlimit="10"/><text fill="rgb(125,125,255)" stroke="none" font-family="geogebra-sans-serif, sans-serif" font-size="16px" font-style="normal" font-weight="normal" text-decoration="normal" x="928" y="538" text-anchor="start" dominant-baseline="alphabetic" fill-opacity="1">R</text><path fill="rgb(125,125,255)" stroke="none" paint-order="stroke fill markers" d=" M 343.1329484981844 606.5548596570645 C 343.1329484981844 609.3162834062185 340.89437224733837 611.5548596570645 338.1329484981844 611.5548596570645 C 335.37152474903047 611.5548596570645 333.1329484981844 609.3162834062185 333.1329484981844 606.5548596570645 C 333.1329484981844 603.7934359079105 335.37152474903047 601.5548596570645 338.1329484981844 601.5548596570645 C 340.89437224733837 601.5548596570645 343.1329484981844 603.7934359079105 343.1329484981844 606.5548596570645 Z" fill-opacity="1"/><path fill="none" stroke="rgb(0,0,0)" paint-order="fill stroke markers" d=" M 343.1329484981844 606.5548596570645 C 343.1329484981844 609.3162834062185 340.89437224733837 611.5548596570645 338.1329484981844 611.5548596570645 C 335.37152474903047 611.5548596570645 333.1329484981844 609.3162834062185 333.1329484981844 606.5548596570645 C 333.1329484981844 603.7934359079105 335.37152474903047 601.5548596570645 338.1329484981844 601.5548596570645 C 340.89437224733837 601.5548596570645 343.1329484981844 603.7934359079105 343.1329484981844 606.5548596570645 Z" stroke-opacity="1" stroke-linecap="round" stroke-linejoin="round" stroke-miterlimit="10"/><text fill="rgb(125,125,255)" stroke="none" font-family="geogebra-sans-serif, sans-serif" font-size="16px" font-style="normal" font-weight="normal" text-decoration="normal" x="342" y="597" text-anchor="start" dominant-baseline="alphabetic" fill-opacity="1">S</text><path fill="rgb(125,125,255)" stroke="none" paint-order="stroke fill markers" d=" M 929.0051047941712 606.5548596570645 C 929.0051047941712 609.3162834062185 926.7665285433252 611.5548596570645 924.0051047941712 611.5548596570645 C 921.2436810450172 611.5548596570645 919.0051047941712 609.3162834062185 919.0051047941712 606.5548596570645 C 919.0051047941712 603.7934359079105 921.2436810450172 601.5548596570645 924.0051047941712 601.5548596570645 C 926.7665285433252 601.5548596570645 929.0051047941712 603.7934359079105 929.0051047941712 606.5548596570645 Z" fill-opacity="1"/><path fill="none" stroke="rgb(0,0,0)" paint-order="fill stroke markers" d=" M 929.0051047941712 606.5548596570645 C 929.0051047941712 609.3162834062185 926.7665285433252 611.5548596570645 924.0051047941712 611.5548596570645 C 921.2436810450172 611.5548596570645 919.0051047941712 609.3162834062185 919.0051047941712 606.5548596570645 C 919.0051047941712 603.7934359079105 921.2436810450172 601.5548596570645 924.0051047941712 601.5548596570645 C 926.7665285433252 601.5548596570645 929.0051047941712 603.7934359079105 929.0051047941712 606.5548596570645 Z" stroke-opacity="1" stroke-linecap="round" stroke-linejoin="round" stroke-miterlimit="10"/><text fill="rgb(125,125,255)" stroke="none" font-family="geogebra-sans-serif, sans-serif" font-size="16px" font-style="normal" font-weight="normal" text-decoration="normal" x="928" y="597" text-anchor="start" dominant-baseline="alphabetic" fill-opacity="1">T</text><path fill="rgb(125,125,255)" stroke="none" paint-order="stroke fill markers" d=" M 343.1329484981844 665.1420752866634 C 343.1329484981844 667.9034990358174 340.89437224733837 670.1420752866634 338.1329484981844 670.1420752866634 C 335.37152474903047 670.1420752866634 333.1329484981844 667.9034990358174 333.1329484981844 665.1420752866634 C 333.1329484981844 662.3806515375094 335.37152474903047 660.1420752866634 338.1329484981844 660.1420752866634 C 340.89437224733837 660.1420752866634 343.1329484981844 662.3806515375094 343.1329484981844 665.1420752866634 Z" fill-opacity="1"/><path fill="none" stroke="rgb(0,0,0)" paint-order="fill stroke markers" d=" M 343.1329484981844 665.1420752866634 C 343.1329484981844 667.9034990358174 340.89437224733837 670.1420752866634 338.1329484981844 670.1420752866634 C 335.37152474903047 670.1420752866634 333.1329484981844 667.9034990358174 333.1329484981844 665.1420752866634 C 333.1329484981844 662.3806515375094 335.37152474903047 660.1420752866634 338.1329484981844 660.1420752866634 C 340.89437224733837 660.1420752866634 343.1329484981844 662.3806515375094 343.1329484981844 665.1420752866634 Z" stroke-opacity="1" stroke-linecap="round" stroke-linejoin="round" stroke-miterlimit="10"/><text fill="rgb(125,125,255)" stroke="none" font-family="geogebra-sans-serif, sans-serif" font-size="16px" font-style="normal" font-weight="normal" text-decoration="normal" x="342" y="655" text-anchor="start" dominant-baseline="alphabetic" fill-opacity="1">U</text><path fill="rgb(125,125,255)" stroke="none" paint-order="stroke fill markers" d=" M 929.0051047941712 665.1420752866634 C 929.0051047941712 667.9034990358174 926.7665285433252 670.1420752866634 924.0051047941712 670.1420752866634 C 921.2436810450172 670.1420752866634 919.0051047941712 667.9034990358174 919.0051047941712 665.1420752866634 C 919.0051047941712 662.3806515375094 921.2436810450172 660.1420752866634 924.0051047941712 660.1420752866634 C 926.7665285433252 660.1420752866634 929.0051047941712 662.3806515375094 929.0051047941712 665.1420752866634 Z" fill-opacity="1"/><path fill="none" stroke="rgb(0,0,0)" paint-order="fill stroke markers" d=" M 929.0051047941712 665.1420752866634 C 929.0051047941712 667.9034990358174 926.7665285433252 670.1420752866634 924.0051047941712 670.1420752866634 C 921.2436810450172 670.1420752866634 919.0051047941712 667.9034990358174 919.0051047941712 665.1420752866634 C 919.0051047941712 662.3806515375094 921.2436810450172 660.1420752866634 924.0051047941712 660.1420752866634 C 926.7665285433252 660.1420752866634 929.0051047941712 662.3806515375094 929.0051047941712 665.1420752866634 Z" stroke-opacity="1" stroke-linecap="round" stroke-linejoin="round" stroke-miterlimit="10"/><text fill="rgb(125,125,255)" stroke="none" font-family="geogebra-sans-serif, sans-serif" font-size="16px" font-style="normal" font-weight="normal" text-decoration="normal" x="928" y="655" text-anchor="start" dominant-baseline="alphabetic" fill-opacity="1">V</text><path fill="rgb(125,125,255)" stroke="none" paint-order="stroke fill markers" d=" M 401.7201641277831 723.7292909162622 C 401.7201641277831 726.4907146654162 399.48158787693706 728.7292909162622 396.7201641277831 728.7292909162622 C 393.95874037862916 728.7292909162622 391.7201641277831 726.4907146654162 391.7201641277831 723.7292909162622 C 391.7201641277831 720.9678671671082 393.95874037862916 718.7292909162622 396.7201641277831 718.7292909162622 C 399.48158787693706 718.7292909162622 401.7201641277831 720.9678671671082 401.7201641277831 723.7292909162622 Z" fill-opacity="1"/><path fill="none" stroke="rgb(0,0,0)" paint-order="fill stroke markers" d=" M 401.7201641277831 723.7292909162622 C 401.7201641277831 726.4907146654162 399.48158787693706 728.7292909162622 396.7201641277831 728.7292909162622 C 393.95874037862916 728.7292909162622 391.7201641277831 726.4907146654162 391.7201641277831 723.7292909162622 C 391.7201641277831 720.9678671671082 393.95874037862916 718.7292909162622 396.7201641277831 718.7292909162622 C 399.48158787693706 718.7292909162622 401.7201641277831 720.9678671671082 401.7201641277831 723.7292909162622 Z" stroke-opacity="1" stroke-linecap="round" stroke-linejoin="round" stroke-miterlimit="10"/><text fill="rgb(125,125,255)" stroke="none" font-family="geogebra-sans-serif, sans-serif" font-size="16px" font-style="normal" font-weight="normal" text-decoration="normal" x="401" y="714" text-anchor="start" dominant-baseline="alphabetic" fill-opacity="1">W</text><path fill="rgb(125,125,255)" stroke="none" paint-order="stroke fill markers" d=" M 460.3073797573818 723.7292909162622 C 460.3073797573818 726.4907146654162 458.06880350653574 728.7292909162622 455.3073797573818 728.7292909162622 C 452.54595600822785 728.7292909162622 450.3073797573818 726.4907146654162 450.3073797573818 723.7292909162622 C 450.3073797573818 720.9678671671082 452.54595600822785 718.7292909162622 455.3073797573818 718.7292909162622 C 458.06880350653574 718.7292909162622 460.3073797573818 720.9678671671082 460.3073797573818 723.7292909162622 Z" fill-opacity="1"/><path fill="none" stroke="rgb(0,0,0)" paint-order="fill stroke markers" d=" M 460.3073797573818 723.7292909162622 C 460.3073797573818 726.4907146654162 458.06880350653574 728.7292909162622 455.3073797573818 728.7292909162622 C 452.54595600822785 728.7292909162622 450.3073797573818 726.4907146654162 450.3073797573818 723.7292909162622 C 450.3073797573818 720.9678671671082 452.54595600822785 718.7292909162622 455.3073797573818 718.7292909162622 C 458.06880350653574 718.7292909162622 460.3073797573818 720.9678671671082 460.3073797573818 723.7292909162622 Z" stroke-opacity="1" stroke-linecap="round" stroke-linejoin="round" stroke-miterlimit="10"/><text fill="rgb(125,125,255)" stroke="none" font-family="geogebra-sans-serif, sans-serif" font-size="16px" font-style="normal" font-weight="normal" text-decoration="normal" x="459" y="714" text-anchor="start" dominant-baseline="alphabetic" fill-opacity="1">Z</text><path fill="rgb(125,125,255)" stroke="none" paint-order="stroke fill markers" d=" M 518.8945953869804 723.7292909162622 C 518.8945953869804 726.4907146654162 516.6560191361344 728.7292909162622 513.8945953869804 728.7292909162622 C 511.1331716378265 728.7292909162622 508.8945953869804 726.4907146654162 508.8945953869804 723.7292909162622 C 508.8945953869804 720.9678671671082 511.1331716378265 718.7292909162622 513.8945953869804 718.7292909162622 C 516.6560191361344 718.7292909162622 518.8945953869804 720.9678671671082 518.8945953869804 723.7292909162622 Z" fill-opacity="1"/><path fill="none" stroke="rgb(0,0,0)" paint-order="fill stroke markers" d=" M 518.8945953869804 723.7292909162622 C 518.8945953869804 726.4907146654162 516.6560191361344 728.7292909162622 513.8945953869804 728.7292909162622 C 511.1331716378265 728.7292909162622 508.8945953869804 726.4907146654162 508.8945953869804 723.7292909162622 C 508.8945953869804 720.9678671671082 511.1331716378265 718.7292909162622 513.8945953869804 718.7292909162622 C 516.6560191361344 718.7292909162622 518.8945953869804 720.9678671671082 518.8945953869804 723.7292909162622 Z" stroke-opacity="1" stroke-linecap="round" stroke-linejoin="round" stroke-miterlimit="10"/><text fill="rgb(125,125,255)" stroke="none" font-family="geogebra-sans-serif, sans-serif" font-size="16px" font-style="normal" font-weight="normal" text-decoration="normal" x="518" y="714" text-anchor="start" dominant-baseline="alphabetic" fill-opacity="1">A</text><text fill="rgb(125,125,255)" stroke="none" font-family="geogebra-sans-serif, sans-serif" font-size="14px" font-style="normal" font-weight="normal" text-decoration="normal" x="528" y="721" text-anchor="start" dominant-baseline="alphabetic" fill-opacity="1">1</text><path fill="rgb(125,125,255)" stroke="none" paint-order="stroke fill markers" d=" M 401.72016412778316 137.85713462027388 C 401.72016412778316 140.61855836942786 399.4815878769371 142.85713462027388 396.72016412778316 142.85713462027388 C 393.9587403786292 142.85713462027388 391.72016412778316 140.61855836942786 391.72016412778316 137.85713462027388 C 391.72016412778316 135.0957108711199 393.9587403786292 132.85713462027388 396.72016412778316 132.85713462027388 C 399.4815878769371 132.85713462027388 401.72016412778316 135.0957108711199 401.72016412778316 137.85713462027388 Z" fill-opacity="1"/><path fill="none" stroke="rgb(0,0,0)" paint-order="fill stroke markers" d=" M 401.72016412778316 137.85713462027388 C 401.72016412778316 140.61855836942786 399.4815878769371 142.85713462027388 396.72016412778316 142.85713462027388 C 393.9587403786292 142.85713462027388 391.72016412778316 140.61855836942786 391.72016412778316 137.85713462027388 C 391.72016412778316 135.0957108711199 393.9587403786292 132.85713462027388 396.72016412778316 132.85713462027388 C 399.4815878769371 132.85713462027388 401.72016412778316 135.0957108711199 401.72016412778316 137.85713462027388 Z" stroke-opacity="1" stroke-linecap="round" stroke-linejoin="round" stroke-miterlimit="10"/><text fill="rgb(125,125,255)" stroke="none" font-family="geogebra-sans-serif, sans-serif" font-size="16px" font-style="normal" font-weight="normal" text-decoration="normal" x="401" y="128" text-anchor="start" dominant-baseline="alphabetic" fill-opacity="1">B</text><text fill="rgb(125,125,255)" stroke="none" font-family="geogebra-sans-serif, sans-serif" font-size="14px" font-style="normal" font-weight="normal" text-decoration="normal" x="411" y="135" text-anchor="start" dominant-baseline="alphabetic" fill-opacity="1">1</text><path fill="rgb(125,125,255)" stroke="none" paint-order="stroke fill markers" d=" M 460.3073797573818 137.85713462027388 C 460.3073797573818 140.61855836942786 458.06880350653574 142.85713462027388 455.3073797573818 142.85713462027388 C 452.54595600822785 142.85713462027388 450.3073797573818 140.61855836942786 450.3073797573818 137.85713462027388 C 450.3073797573818 135.0957108711199 452.54595600822785 132.85713462027388 455.3073797573818 132.85713462027388 C 458.06880350653574 132.85713462027388 460.3073797573818 135.0957108711199 460.3073797573818 137.85713462027388 Z" fill-opacity="1"/><path fill="none" stroke="rgb(0,0,0)" paint-order="fill stroke markers" d=" M 460.3073797573818 137.85713462027388 C 460.3073797573818 140.61855836942786 458.06880350653574 142.85713462027388 455.3073797573818 142.85713462027388 C 452.54595600822785 142.85713462027388 450.3073797573818 140.61855836942786 450.3073797573818 137.85713462027388 C 450.3073797573818 135.0957108711199 452.54595600822785 132.85713462027388 455.3073797573818 132.85713462027388 C 458.06880350653574 132.85713462027388 460.3073797573818 135.0957108711199 460.3073797573818 137.85713462027388 Z" stroke-opacity="1" stroke-linecap="round" stroke-linejoin="round" stroke-miterlimit="10"/><text fill="rgb(125,125,255)" stroke="none" font-family="geogebra-sans-serif, sans-serif" font-size="16px" font-style="normal" font-weight="normal" text-decoration="normal" x="459" y="128" text-anchor="start" dominant-baseline="alphabetic" fill-opacity="1">C</text><text fill="rgb(125,125,255)" stroke="none" font-family="geogebra-sans-serif, sans-serif" font-size="14px" font-style="normal" font-weight="normal" text-decoration="normal" x="469" y="135" text-anchor="start" dominant-baseline="alphabetic" fill-opacity="1">1</text><path fill="rgb(125,125,255)" stroke="none" paint-order="stroke fill markers" d=" M 518.8945953869804 137.85713462027388 C 518.8945953869804 140.61855836942786 516.6560191361344 142.85713462027388 513.8945953869804 142.85713462027388 C 511.1331716378265 142.85713462027388 508.8945953869804 140.61855836942786 508.8945953869804 137.85713462027388 C 508.8945953869804 135.0957108711199 511.1331716378265 132.85713462027388 513.8945953869804 132.85713462027388 C 516.6560191361344 132.85713462027388 518.8945953869804 135.0957108711199 518.8945953869804 137.85713462027388 Z" fill-opacity="1"/><path fill="none" stroke="rgb(0,0,0)" paint-order="fill stroke markers" d=" M 518.8945953869804 137.85713462027388 C 518.8945953869804 140.61855836942786 516.6560191361344 142.85713462027388 513.8945953869804 142.85713462027388 C 511.1331716378265 142.85713462027388 508.8945953869804 140.61855836942786 508.8945953869804 137.85713462027388 C 508.8945953869804 135.0957108711199 511.1331716378265 132.85713462027388 513.8945953869804 132.85713462027388 C 516.6560191361344 132.85713462027388 518.8945953869804 135.0957108711199 518.8945953869804 137.85713462027388 Z" stroke-opacity="1" stroke-linecap="round" stroke-linejoin="round" stroke-miterlimit="10"/><text fill="rgb(125,125,255)" stroke="none" font-family="geogebra-sans-serif, sans-serif" font-size="16px" font-style="normal" font-weight="normal" text-decoration="normal" x="518" y="128" text-anchor="start" dominant-baseline="alphabetic" fill-opacity="1">D</text><text fill="rgb(125,125,255)" stroke="none" font-family="geogebra-sans-serif, sans-serif" font-size="14px" font-style="normal" font-weight="normal" text-decoration="normal" x="528" y="135" text-anchor="start" dominant-baseline="alphabetic" fill-opacity="1">1</text><path fill="rgb(125,125,255)" stroke="none" paint-order="stroke fill markers" d=" M 577.4818110165792 723.7292909162622 C 577.4818110165792 726.4907146654162 575.2432347657332 728.7292909162622 572.4818110165792 728.7292909162622 C 569.7203872674252 728.7292909162622 567.4818110165792 726.4907146654162 567.4818110165792 723.7292909162622 C 567.4818110165792 720.9678671671082 569.7203872674252 718.7292909162622 572.4818110165792 718.7292909162622 C 575.2432347657332 718.7292909162622 577.4818110165792 720.9678671671082 577.4818110165792 723.7292909162622 Z" fill-opacity="1"/><path fill="none" stroke="rgb(0,0,0)" paint-order="fill stroke markers" d=" M 577.4818110165792 723.7292909162622 C 577.4818110165792 726.4907146654162 575.2432347657332 728.7292909162622 572.4818110165792 728.7292909162622 C 569.7203872674252 728.7292909162622 567.4818110165792 726.4907146654162 567.4818110165792 723.7292909162622 C 567.4818110165792 720.9678671671082 569.7203872674252 718.7292909162622 572.4818110165792 718.7292909162622 C 575.2432347657332 718.7292909162622 577.4818110165792 720.9678671671082 577.4818110165792 723.7292909162622 Z" stroke-opacity="1" stroke-linecap="round" stroke-linejoin="round" stroke-miterlimit="10"/><text fill="rgb(125,125,255)" stroke="none" font-family="geogebra-sans-serif, sans-serif" font-size="16px" font-style="normal" font-weight="normal" text-decoration="normal" x="576" y="714" text-anchor="start" dominant-baseline="alphabetic" fill-opacity="1">E</text><text fill="rgb(125,125,255)" stroke="none" font-family="geogebra-sans-serif, sans-serif" font-size="14px" font-style="normal" font-weight="normal" text-decoration="normal" x="585" y="721" text-anchor="start" dominant-baseline="alphabetic" fill-opacity="1">1</text><path fill="rgb(125,125,255)" stroke="none" paint-order="stroke fill markers" d=" M 636.0690266461778 723.7292909162622 C 636.0690266461778 726.4907146654162 633.8304503953318 728.7292909162622 631.0690266461778 728.7292909162622 C 628.3076028970238 728.7292909162622 626.0690266461778 726.4907146654162 626.0690266461778 723.7292909162622 C 626.0690266461778 720.9678671671082 628.3076028970238 718.7292909162622 631.0690266461778 718.7292909162622 C 633.8304503953318 718.7292909162622 636.0690266461778 720.9678671671082 636.0690266461778 723.7292909162622 Z" fill-opacity="1"/><path fill="none" stroke="rgb(0,0,0)" paint-order="fill stroke markers" d=" M 636.0690266461778 723.7292909162622 C 636.0690266461778 726.4907146654162 633.8304503953318 728.7292909162622 631.0690266461778 728.7292909162622 C 628.3076028970238 728.7292909162622 626.0690266461778 726.4907146654162 626.0690266461778 723.7292909162622 C 626.0690266461778 720.9678671671082 628.3076028970238 718.7292909162622 631.0690266461778 718.7292909162622 C 633.8304503953318 718.7292909162622 636.0690266461778 720.9678671671082 636.0690266461778 723.7292909162622 Z" stroke-opacity="1" stroke-linecap="round" stroke-linejoin="round" stroke-miterlimit="10"/><text fill="rgb(125,125,255)" stroke="none" font-family="geogebra-sans-serif, sans-serif" font-size="16px" font-style="normal" font-weight="normal" text-decoration="normal" x="635" y="714" text-anchor="start" dominant-baseline="alphabetic" fill-opacity="1">F</text><text fill="rgb(125,125,255)" stroke="none" font-family="geogebra-sans-serif, sans-serif" font-size="14px" font-style="normal" font-weight="normal" text-decoration="normal" x="644" y="721" text-anchor="start" dominant-baseline="alphabetic" fill-opacity="1">1</text><path fill="rgb(125,125,255)" stroke="none" paint-order="stroke fill markers" d=" M 694.6562422757765 723.7292909162622 C 694.6562422757765 726.4907146654162 692.4176660249306 728.7292909162622 689.6562422757765 728.7292909162622 C 686.8948185266225 728.7292909162622 684.6562422757765 726.4907146654162 684.6562422757765 723.7292909162622 C 684.6562422757765 720.9678671671082 686.8948185266225 718.7292909162622 689.6562422757765 718.7292909162622 C 692.4176660249306 718.7292909162622 694.6562422757765 720.9678671671082 694.6562422757765 723.7292909162622 Z" fill-opacity="1"/><path fill="none" stroke="rgb(0,0,0)" paint-order="fill stroke markers" d=" M 694.6562422757765 723.7292909162622 C 694.6562422757765 726.4907146654162 692.4176660249306 728.7292909162622 689.6562422757765 728.7292909162622 C 686.8948185266225 728.7292909162622 684.6562422757765 726.4907146654162 684.6562422757765 723.7292909162622 C 684.6562422757765 720.9678671671082 686.8948185266225 718.7292909162622 689.6562422757765 718.7292909162622 C 692.4176660249306 718.7292909162622 694.6562422757765 720.9678671671082 694.6562422757765 723.7292909162622 Z" stroke-opacity="1" stroke-linecap="round" stroke-linejoin="round" stroke-miterlimit="10"/><text fill="rgb(125,125,255)" stroke="none" font-family="geogebra-sans-serif, sans-serif" font-size="16px" font-style="normal" font-weight="normal" text-decoration="normal" x="694" y="714" text-anchor="start" dominant-baseline="alphabetic" fill-opacity="1">G</text><text fill="rgb(125,125,255)" stroke="none" font-family="geogebra-sans-serif, sans-serif" font-size="14px" font-style="normal" font-weight="normal" text-decoration="normal" x="704" y="721" text-anchor="start" dominant-baseline="alphabetic" fill-opacity="1">1</text><path fill="rgb(125,125,255)" stroke="none" paint-order="stroke fill markers" d=" M 753.2434579053752 723.7292909162622 C 753.2434579053752 726.4907146654162 751.0048816545292 728.7292909162622 748.2434579053752 728.7292909162622 C 745.4820341562212 728.7292909162622 743.2434579053752 726.4907146654162 743.2434579053752 723.7292909162622 C 743.2434579053752 720.9678671671082 745.4820341562212 718.7292909162622 748.2434579053752 718.7292909162622 C 751.0048816545292 718.7292909162622 753.2434579053752 720.9678671671082 753.2434579053752 723.7292909162622 Z" fill-opacity="1"/><path fill="none" stroke="rgb(0,0,0)" paint-order="fill stroke markers" d=" M 753.2434579053752 723.7292909162622 C 753.2434579053752 726.4907146654162 751.0048816545292 728.7292909162622 748.2434579053752 728.7292909162622 C 745.4820341562212 728.7292909162622 743.2434579053752 726.4907146654162 743.2434579053752 723.7292909162622 C 743.2434579053752 720.9678671671082 745.4820341562212 718.7292909162622 748.2434579053752 718.7292909162622 C 751.0048816545292 718.7292909162622 753.2434579053752 720.9678671671082 753.2434579053752 723.7292909162622 Z" stroke-opacity="1" stroke-linecap="round" stroke-linejoin="round" stroke-miterlimit="10"/><text fill="rgb(125,125,255)" stroke="none" font-family="geogebra-sans-serif, sans-serif" font-size="16px" font-style="normal" font-weight="normal" text-decoration="normal" x="752" y="714" text-anchor="start" dominant-baseline="alphabetic" fill-opacity="1">H</text><text fill="rgb(125,125,255)" stroke="none" font-family="geogebra-sans-serif, sans-serif" font-size="14px" font-style="normal" font-weight="normal" text-decoration="normal" x="763" y="721" text-anchor="start" dominant-baseline="alphabetic" fill-opacity="1">1</text><path fill="rgb(125,125,255)" stroke="none" paint-order="stroke fill markers" d=" M 811.8306735349738 723.7292909162622 C 811.8306735349738 726.4907146654162 809.5920972841278 728.7292909162622 806.8306735349738 728.7292909162622 C 804.0692497858198 728.7292909162622 801.8306735349738 726.4907146654162 801.8306735349738 723.7292909162622 C 801.8306735349738 720.9678671671082 804.0692497858198 718.7292909162622 806.8306735349738 718.7292909162622 C 809.5920972841278 718.7292909162622 811.8306735349738 720.9678671671082 811.8306735349738 723.7292909162622 Z" fill-opacity="1"/><path fill="none" stroke="rgb(0,0,0)" paint-order="fill stroke markers" d=" M 811.8306735349738 723.7292909162622 C 811.8306735349738 726.4907146654162 809.5920972841278 728.7292909162622 806.8306735349738 728.7292909162622 C 804.0692497858198 728.7292909162622 801.8306735349738 726.4907146654162 801.8306735349738 723.7292909162622 C 801.8306735349738 720.9678671671082 804.0692497858198 718.7292909162622 806.8306735349738 718.7292909162622 C 809.5920972841278 718.7292909162622 811.8306735349738 720.9678671671082 811.8306735349738 723.7292909162622 Z" stroke-opacity="1" stroke-linecap="round" stroke-linejoin="round" stroke-miterlimit="10"/><text fill="rgb(125,125,255)" stroke="none" font-family="geogebra-sans-serif, sans-serif" font-size="16px" font-style="normal" font-weight="normal" text-decoration="normal" x="811" y="714" text-anchor="start" dominant-baseline="alphabetic" fill-opacity="1">I</text><text fill="rgb(125,125,255)" stroke="none" font-family="geogebra-sans-serif, sans-serif" font-size="14px" font-style="normal" font-weight="normal" text-decoration="normal" x="815" y="721" text-anchor="start" dominant-baseline="alphabetic" fill-opacity="1">1</text><path fill="rgb(125,125,255)" stroke="none" paint-order="stroke fill markers" d=" M 870.4178891645726 723.7292909162622 C 870.4178891645726 726.4907146654162 868.1793129137266 728.7292909162622 865.4178891645726 728.7292909162622 C 862.6564654154186 728.7292909162622 860.4178891645726 726.4907146654162 860.4178891645726 723.7292909162622 C 860.4178891645726 720.9678671671082 862.6564654154186 718.7292909162622 865.4178891645726 718.7292909162622 C 868.1793129137266 718.7292909162622 870.4178891645726 720.9678671671082 870.4178891645726 723.7292909162622 Z" fill-opacity="1"/><path fill="none" stroke="rgb(0,0,0)" paint-order="fill stroke markers" d=" M 870.4178891645726 723.7292909162622 C 870.4178891645726 726.4907146654162 868.1793129137266 728.7292909162622 865.4178891645726 728.7292909162622 C 862.6564654154186 728.7292909162622 860.4178891645726 726.4907146654162 860.4178891645726 723.7292909162622 C 860.4178891645726 720.9678671671082 862.6564654154186 718.7292909162622 865.4178891645726 718.7292909162622 C 868.1793129137266 718.7292909162622 870.4178891645726 720.9678671671082 870.4178891645726 723.7292909162622 Z" stroke-opacity="1" stroke-linecap="round" stroke-linejoin="round" stroke-miterlimit="10"/><text fill="rgb(125,125,255)" stroke="none" font-family="geogebra-sans-serif, sans-serif" font-size="16px" font-style="normal" font-weight="normal" text-decoration="normal" x="869" y="714" text-anchor="start" dominant-baseline="alphabetic" fill-opacity="1">J</text><text fill="rgb(125,125,255)" stroke="none" font-family="geogebra-sans-serif, sans-serif" font-size="14px" font-style="normal" font-weight="normal" text-decoration="normal" x="877" y="721" text-anchor="start" dominant-baseline="alphabetic" fill-opacity="1">1</text><path fill="rgb(125,125,255)" stroke="none" paint-order="stroke fill markers" d=" M 577.4818110165792 137.85713462027388 C 577.4818110165792 140.61855836942786 575.2432347657332 142.85713462027388 572.4818110165792 142.85713462027388 C 569.7203872674252 142.85713462027388 567.4818110165792 140.61855836942786 567.4818110165792 137.85713462027388 C 567.4818110165792 135.0957108711199 569.7203872674252 132.85713462027388 572.4818110165792 132.85713462027388 C 575.2432347657332 132.85713462027388 577.4818110165792 135.0957108711199 577.4818110165792 137.85713462027388 Z" fill-opacity="1"/><path fill="none" stroke="rgb(0,0,0)" paint-order="fill stroke markers" d=" M 577.4818110165792 137.85713462027388 C 577.4818110165792 140.61855836942786 575.2432347657332 142.85713462027388 572.4818110165792 142.85713462027388 C 569.7203872674252 142.85713462027388 567.4818110165792 140.61855836942786 567.4818110165792 137.85713462027388 C 567.4818110165792 135.0957108711199 569.7203872674252 132.85713462027388 572.4818110165792 132.85713462027388 C 575.2432347657332 132.85713462027388 577.4818110165792 135.0957108711199 577.4818110165792 137.85713462027388 Z" stroke-opacity="1" stroke-linecap="round" stroke-linejoin="round" stroke-miterlimit="10"/><text fill="rgb(125,125,255)" stroke="none" font-family="geogebra-sans-serif, sans-serif" font-size="16px" font-style="normal" font-weight="normal" text-decoration="normal" x="576" y="128" text-anchor="start" dominant-baseline="alphabetic" fill-opacity="1">K</text><text fill="rgb(125,125,255)" stroke="none" font-family="geogebra-sans-serif, sans-serif" font-size="14px" font-style="normal" font-weight="normal" text-decoration="normal" x="586" y="135" text-anchor="start" dominant-baseline="alphabetic" fill-opacity="1">1</text><path fill="rgb(125,125,255)" stroke="none" paint-order="stroke fill markers" d=" M 636.0690266461779 137.85713462027388 C 636.0690266461779 140.61855836942786 633.8304503953319 142.85713462027388 631.0690266461779 142.85713462027388 C 628.3076028970239 142.85713462027388 626.0690266461779 140.61855836942786 626.0690266461779 137.85713462027388 C 626.0690266461779 135.0957108711199 628.3076028970239 132.85713462027388 631.0690266461779 132.85713462027388 C 633.8304503953319 132.85713462027388 636.0690266461779 135.0957108711199 636.0690266461779 137.85713462027388 Z" fill-opacity="1"/><path fill="none" stroke="rgb(0,0,0)" paint-order="fill stroke markers" d=" M 636.0690266461779 137.85713462027388 C 636.0690266461779 140.61855836942786 633.8304503953319 142.85713462027388 631.0690266461779 142.85713462027388 C 628.3076028970239 142.85713462027388 626.0690266461779 140.61855836942786 626.0690266461779 137.85713462027388 C 626.0690266461779 135.0957108711199 628.3076028970239 132.85713462027388 631.0690266461779 132.85713462027388 C 633.8304503953319 132.85713462027388 636.0690266461779 135.0957108711199 636.0690266461779 137.85713462027388 Z" stroke-opacity="1" stroke-linecap="round" stroke-linejoin="round" stroke-miterlimit="10"/><text fill="rgb(125,125,255)" stroke="none" font-family="geogebra-sans-serif, sans-serif" font-size="16px" font-style="normal" font-weight="normal" text-decoration="normal" x="635" y="128" text-anchor="start" dominant-baseline="alphabetic" fill-opacity="1">L</text><text fill="rgb(125,125,255)" stroke="none" font-family="geogebra-sans-serif, sans-serif" font-size="14px" font-style="normal" font-weight="normal" text-decoration="normal" x="643" y="135" text-anchor="start" dominant-baseline="alphabetic" fill-opacity="1">1</text><path fill="rgb(125,125,255)" stroke="none" paint-order="stroke fill markers" d=" M 694.6562422757765 137.85713462027388 C 694.6562422757765 140.61855836942786 692.4176660249306 142.85713462027388 689.6562422757765 142.85713462027388 C 686.8948185266225 142.85713462027388 684.6562422757765 140.61855836942786 684.6562422757765 137.85713462027388 C 684.6562422757765 135.0957108711199 686.8948185266225 132.85713462027388 689.6562422757765 132.85713462027388 C 692.4176660249306 132.85713462027388 694.6562422757765 135.0957108711199 694.6562422757765 137.85713462027388 Z" fill-opacity="1"/><path fill="none" stroke="rgb(0,0,0)" paint-order="fill stroke markers" d=" M 694.6562422757765 137.85713462027388 C 694.6562422757765 140.61855836942786 692.4176660249306 142.85713462027388 689.6562422757765 142.85713462027388 C 686.8948185266225 142.85713462027388 684.6562422757765 140.61855836942786 684.6562422757765 137.85713462027388 C 684.6562422757765 135.0957108711199 686.8948185266225 132.85713462027388 689.6562422757765 132.85713462027388 C 692.4176660249306 132.85713462027388 694.6562422757765 135.0957108711199 694.6562422757765 137.85713462027388 Z" stroke-opacity="1" stroke-linecap="round" stroke-linejoin="round" stroke-miterlimit="10"/><text fill="rgb(125,125,255)" stroke="none" font-family="geogebra-sans-serif, sans-serif" font-size="16px" font-style="normal" font-weight="normal" text-decoration="normal" x="694" y="128" text-anchor="start" dominant-baseline="alphabetic" fill-opacity="1">M</text><text fill="rgb(125,125,255)" stroke="none" font-family="geogebra-sans-serif, sans-serif" font-size="14px" font-style="normal" font-weight="normal" text-decoration="normal" x="708" y="135" text-anchor="start" dominant-baseline="alphabetic" fill-opacity="1">1</text><path fill="rgb(125,125,255)" stroke="none" paint-order="stroke fill markers" d=" M 753.2434579053752 137.85713462027388 C 753.2434579053752 140.61855836942786 751.0048816545292 142.85713462027388 748.2434579053752 142.85713462027388 C 745.4820341562212 142.85713462027388 743.2434579053752 140.61855836942786 743.2434579053752 137.85713462027388 C 743.2434579053752 135.0957108711199 745.4820341562212 132.85713462027388 748.2434579053752 132.85713462027388 C 751.0048816545292 132.85713462027388 753.2434579053752 135.0957108711199 753.2434579053752 137.85713462027388 Z" fill-opacity="1"/><path fill="none" stroke="rgb(0,0,0)" paint-order="fill stroke markers" d=" M 753.2434579053752 137.85713462027388 C 753.2434579053752 140.61855836942786 751.0048816545292 142.85713462027388 748.2434579053752 142.85713462027388 C 745.4820341562212 142.85713462027388 743.2434579053752 140.61855836942786 743.2434579053752 137.85713462027388 C 743.2434579053752 135.0957108711199 745.4820341562212 132.85713462027388 748.2434579053752 132.85713462027388 C 751.0048816545292 132.85713462027388 753.2434579053752 135.0957108711199 753.2434579053752 137.85713462027388 Z" stroke-opacity="1" stroke-linecap="round" stroke-linejoin="round" stroke-miterlimit="10"/><text fill="rgb(125,125,255)" stroke="none" font-family="geogebra-sans-serif, sans-serif" font-size="16px" font-style="normal" font-weight="normal" text-decoration="normal" x="752" y="128" text-anchor="start" dominant-baseline="alphabetic" fill-opacity="1">N</text><text fill="rgb(125,125,255)" stroke="none" font-family="geogebra-sans-serif, sans-serif" font-size="14px" font-style="normal" font-weight="normal" text-decoration="normal" x="763" y="135" text-anchor="start" dominant-baseline="alphabetic" fill-opacity="1">1</text><path fill="rgb(125,125,255)" stroke="none" paint-order="stroke fill markers" d=" M 811.8306735349738 137.85713462027388 C 811.8306735349738 140.61855836942786 809.5920972841278 142.85713462027388 806.8306735349738 142.85713462027388 C 804.0692497858198 142.85713462027388 801.8306735349738 140.61855836942786 801.8306735349738 137.85713462027388 C 801.8306735349738 135.0957108711199 804.0692497858198 132.85713462027388 806.8306735349738 132.85713462027388 C 809.5920972841278 132.85713462027388 811.8306735349738 135.0957108711199 811.8306735349738 137.85713462027388 Z" fill-opacity="1"/><path fill="none" stroke="rgb(0,0,0)" paint-order="fill stroke markers" d=" M 811.8306735349738 137.85713462027388 C 811.8306735349738 140.61855836942786 809.5920972841278 142.85713462027388 806.8306735349738 142.85713462027388 C 804.0692497858198 142.85713462027388 801.8306735349738 140.61855836942786 801.8306735349738 137.85713462027388 C 801.8306735349738 135.0957108711199 804.0692497858198 132.85713462027388 806.8306735349738 132.85713462027388 C 809.5920972841278 132.85713462027388 811.8306735349738 135.0957108711199 811.8306735349738 137.85713462027388 Z" stroke-opacity="1" stroke-linecap="round" stroke-linejoin="round" stroke-miterlimit="10"/><text fill="rgb(125,125,255)" stroke="none" font-family="geogebra-sans-serif, sans-serif" font-size="16px" font-style="normal" font-weight="normal" text-decoration="normal" x="811" y="128" text-anchor="start" dominant-baseline="alphabetic" fill-opacity="1">O</text><text fill="rgb(125,125,255)" stroke="none" font-family="geogebra-sans-serif, sans-serif" font-size="14px" font-style="normal" font-weight="normal" text-decoration="normal" x="821" y="135" text-anchor="start" dominant-baseline="alphabetic" fill-opacity="1">1</text><path fill="rgb(125,125,255)" stroke="none" paint-order="stroke fill markers" d=" M 870.4178891645726 137.85713462027388 C 870.4178891645726 140.61855836942786 868.1793129137266 142.85713462027388 865.4178891645726 142.85713462027388 C 862.6564654154186 142.85713462027388 860.4178891645726 140.61855836942786 860.4178891645726 137.85713462027388 C 860.4178891645726 135.0957108711199 862.6564654154186 132.85713462027388 865.4178891645726 132.85713462027388 C 868.1793129137266 132.85713462027388 870.4178891645726 135.0957108711199 870.4178891645726 137.85713462027388 Z" fill-opacity="1"/><path fill="none" stroke="rgb(0,0,0)" paint-order="fill stroke markers" d=" M 870.4178891645726 137.85713462027388 C 870.4178891645726 140.61855836942786 868.1793129137266 142.85713462027388 865.4178891645726 142.85713462027388 C 862.6564654154186 142.85713462027388 860.4178891645726 140.61855836942786 860.4178891645726 137.85713462027388 C 860.4178891645726 135.0957108711199 862.6564654154186 132.85713462027388 865.4178891645726 132.85713462027388 C 868.1793129137266 132.85713462027388 870.4178891645726 135.0957108711199 870.4178891645726 137.85713462027388 Z" stroke-opacity="1" stroke-linecap="round" stroke-linejoin="round" stroke-miterlimit="10"/><text fill="rgb(125,125,255)" stroke="none" font-family="geogebra-sans-serif, sans-serif" font-size="16px" font-style="normal" font-weight="normal" text-decoration="normal" x="869" y="128" text-anchor="start" dominant-baseline="alphabetic" fill-opacity="1">P</text><text fill="rgb(125,125,255)" stroke="none" font-family="geogebra-sans-serif, sans-serif" font-size="14px" font-style="normal" font-weight="normal" text-decoration="normal" x="879" y="135" text-anchor="start" dominant-baseline="alphabetic" fill-opacity="1">1</text></g></svg>