<svg version="1.1" xmlns="http://www.w3.org/2000/svg" xmlns:xlink="http://www.w3.org/1999/xlink" width="1528" height="896"><defs/><g transform="scale(1,1)"><rect fill="rgb(255,255,255)" stroke="none" x="0" y="0" width="1528" height="896" fill-opacity="1"/><path fill="none" stroke="rgb(0,0,0)" paint-order="fill stroke markers" d=" M 843.0617397365211 457.30448402509023 C 843.0617397365211 606.1485437566002 722.3997887061694 726.8104947869522 573.5557289746598 726.8104947869522 C 424.71166924315014 726.8104947869522 304.04971821279855 606.1485437566002 304.04971821279855 457.30448402509023 C 304.04971821279855 308.4604242935802 424.71166924315014 187.79847326322835 573.5557289746598 187.79847326322835 C 722.3997887061694 187.79847326322835 843.0617397365211 308.4604242935802 843.0617397365211 457.30448402509023 Z" stroke-opacity="0.6980392156862745" stroke-linecap="round" stroke-linejoin="round" stroke-miterlimit="10" stroke-width="2.5"/><path fill="none" stroke="rgb(0,0,0)" paint-order="fill stroke markers" d=" M 627.4569311270321 457.30448402509023 C 627.4569311270321 487.0732959713922 603.3245409209618 511.2056861774626 573.5557289746598 511.2056861774626 C 543.786917028358 511.2056861774626 519.6545268222876 487.0732959713922 519.6545268222876 457.30448402509023 C 519.6545268222876 427.53567207878825 543.786917028358 403.40328187271786 573.5557289746598 403.40328187271786 C 603.3245409209618 403.40328187271786 627.4569311270321 427.53567207878825 627.4569311270321 457.30448402509023 Z" stroke-opacity="0.6980392156862745" stroke-linecap="round" stroke-linejoin="round" stroke-miterlimit="10" stroke-width="2.5"/><path fill="none" stroke="rgb(0,0,0)" paint-order="fill stroke markers" d=" M 681.3581332794043 457.30448402509023 C 681.3581332794043 516.8421079176942 633.0933528672637 565.106888329835 573.5557289746598 565.106888329835 C 514.018105082056 565.106888329835 465.7533246699153 516.8421079176942 465.7533246699153 457.30448402509023 C 465.7533246699153 397.7668601324862 514.018105082056 349.5020797203455 573.5557289746598 349.5020797203455 C 633.0933528672637 349.5020797203455 681.3581332794043 397.7668601324862 681.3581332794043 457.30448402509023 Z" stroke-opacity="0.6980392156862745" stroke-linecap="round" stroke-linejoin="round" stroke-miterlimit="10" stroke-width="2.5"/><path fill="none" stroke="rgb(0,0,0)" paint-order="fill stroke markers" d=" M 735.2593354317767 457.30448402509023 C 735.2593354317767 546.6109198639962 662.8621648135656 619.0080904822073 573.5557289746598 619.0080904822073 C 484.24929313575404 619.0080904822073 411.8521225175431 546.6109198639962 411.8521225175431 457.30448402509023 C 411.8521225175431 367.99804818618423 484.24929313575404 295.6008775679731 573.5557289746598 295.6008775679731 C 662.8621648135656 295.6008775679731 735.2593354317767 367.99804818618423 735.2593354317767 457.30448402509023 Z" stroke-opacity="0.6980392156862745" stroke-linecap="round" stroke-linejoin="round" stroke-miterlimit="10" stroke-width="2.5"/><path fill="none" stroke="rgb(0,0,0)" paint-order="fill stroke markers" d=" M 789.1605375841489 457.30448402509023 C 789.1605375841489 576.3797318102982 692.6309767598675 672.9092926345797 573.5557289746598 672.9092926345797 C 454.48048118945206 672.9092926345797 357.95092036517076 576.3797318102982 357.95092036517076 457.30448402509023 C 357.95092036517076 338.22923623988225 454.48048118945206 241.69967541560072 573.5557289746598 241.69967541560072 C 692.6309767598675 241.69967541560072 789.1605375841489 338.22923623988225 789.1605375841489 457.30448402509023 Z" stroke-opacity="0.6980392156862745" stroke-linecap="round" stroke-linejoin="round" stroke-miterlimit="10" stroke-width="2.5"/><path fill="rgb(77,77,255)" stroke="none" paint-order="stroke fill markers" d=" M 578.5557289746598 457.30448402509023 C 578.5557289746598 460.0659077742442 576.3171527238138 462.30448402509023 573.5557289746598 462.30448402509023 C 570.7943052255058 462.30448402509023 568.5557289746598 460.0659077742442 568.5557289746598 457.30448402509023 C 568.5557289746598 454.5430602759363 570.7943052255058 452.30448402509023 573.5557289746598 452.30448402509023 C 576.3171527238138 452.30448402509023 578.5557289746598 454.5430602759363 578.5557289746598 457.30448402509023 Z" fill-opacity="1"/><path fill="none" stroke="rgb(0,0,0)" paint-order="fill stroke markers" d=" M 578.5557289746598 457.30448402509023 C 578.5557289746598 460.0659077742442 576.3171527238138 462.30448402509023 573.5557289746598 462.30448402509023 C 570.7943052255058 462.30448402509023 568.5557289746598 460.0659077742442 568.5557289746598 457.30448402509023 C 568.5557289746598 454.5430602759363 570.7943052255058 452.30448402509023 573.5557289746598 452.30448402509023 C 576.3171527238138 452.30448402509023 578.5557289746598 454.5430602759363 578.5557289746598 457.30448402509023 Z" stroke-opacity="1" stroke-linecap="round" stroke-linejoin="round" stroke-miterlimit="10"/><path fill="rgb(125,125,255)" stroke="none" paint-order="stroke fill markers" d=" M 345.0389691687214 591.8534071962114 C 345.0389691687214 594.6148309453654 342.80039291787534 596.8534071962114 340.0389691687214 596.8534071962114 C 337.27754541956745 596.8534071962114 335.0389691687214 594.6148309453654 335.0389691687214 591.8534071962114 C 335.0389691687214 589.0919834470574 337.27754541956745 586.8534071962114 340.0389691687214 586.8534071962114 C 342.80039291787534 586.8534071962114 345.0389691687214 589.0919834470574 345.0389691687214 591.8534071962114 Z" fill-opacity="1"/><path fill="none" stroke="rgb(0,0,0)" paint-order="fill stroke markers" d=" M 345.0389691687214 591.8534071962114 C 345.0389691687214 594.6148309453654 342.80039291787534 596.8534071962114 340.0389691687214 596.8534071962114 C 337.27754541956745 596.8534071962114 335.0389691687214 594.6148309453654 335.0389691687214 591.8534071962114 C 335.0389691687214 589.0919834470574 337.27754541956745 586.8534071962114 340.0389691687214 586.8534071962114 C 342.80039291787534 586.8534071962114 345.0389691687214 589.0919834470574 345.0389691687214 591.8534071962114 Z" stroke-opacity="1" stroke-linecap="round" stroke-linejoin="round" stroke-miterlimit="10"/><path fill="rgb(125,125,255)" stroke="none" paint-order="stroke fill markers" d=" M 811.8368943956602 592.2614686409017 C 811.8368943956602 595.0228923900557 809.5983181448142 597.2614686409017 806.8368943956602 597.2614686409017 C 804.0754706465062 597.2614686409017 801.8368943956602 595.0228923900557 801.8368943956602 592.2614686409017 C 801.8368943956602 589.5000448917477 804.0754706465062 587.2614686409017 806.8368943956602 587.2614686409017 C 809.5983181448142 587.2614686409017 811.8368943956602 589.5000448917477 811.8368943956602 592.2614686409017 Z" fill-opacity="1"/><path fill="none" stroke="rgb(0,0,0)" paint-order="fill stroke markers" d=" M 811.8368943956602 592.2614686409017 C 811.8368943956602 595.0228923900557 809.5983181448142 597.2614686409017 806.8368943956602 597.2614686409017 C 804.0754706465062 597.2614686409017 801.8368943956602 595.0228923900557 801.8368943956602 592.2614686409017 C 801.8368943956602 589.5000448917477 804.0754706465062 587.2614686409017 806.8368943956602 587.2614686409017 C 809.5983181448142 587.2614686409017 811.8368943956602 589.5000448917477 811.8368943956602 592.2614686409017 Z" stroke-opacity="1" stroke-linecap="round" stroke-linejoin="round" stroke-miterlimit="10"/><path fill="rgb(125,125,255)" stroke="none" paint-order="stroke fill markers" d=" M 578.7913233595978 187.7985762381577 C 578.7913233595978 190.55999998731167 576.5527471087518 192.7985762381577 573.7913233595978 192.7985762381577 C 571.0298996104437 192.7985762381577 568.7913233595978 190.55999998731167 568.7913233595978 187.7985762381577 C 568.7913233595978 185.03715248900372 571.0298996104437 182.7985762381577 573.7913233595978 182.7985762381577 C 576.5527471087518 182.7985762381577 578.7913233595978 185.03715248900372 578.7913233595978 187.7985762381577 Z" fill-opacity="1"/><path fill="none" stroke="rgb(0,0,0)" paint-order="fill stroke markers" d=" M 578.7913233595978 187.7985762381577 C 578.7913233595978 190.55999998731167 576.5527471087518 192.7985762381577 573.7913233595978 192.7985762381577 C 571.0298996104437 192.7985762381577 568.7913233595978 190.55999998731167 568.7913233595978 187.7985762381577 C 568.7913233595978 185.03715248900372 571.0298996104437 182.7985762381577 573.7913233595978 182.7985762381577 C 576.5527471087518 182.7985762381577 578.7913233595978 185.03715248900372 578.7913233595978 187.7985762381577 Z" stroke-opacity="1" stroke-linecap="round" stroke-linejoin="round" stroke-miterlimit="10"/><path fill="rgb(68,68,68)" stroke="none" paint-order="stroke fill markers" d=" M 344.0389691687214 591.8534071962114 C 344.0389691687214 594.0625461955345 342.24810816804455 595.8534071962114 340.0389691687214 595.8534071962114 C 337.82983016939824 595.8534071962114 336.0389691687214 594.0625461955345 336.0389691687214 591.8534071962114 C 336.0389691687214 589.6442681968882 337.82983016939824 587.8534071962114 340.0389691687214 587.8534071962114 C 342.24810816804455 587.8534071962114 344.0389691687214 589.6442681968882 344.0389691687214 591.8534071962114 Z" fill-opacity="1"/><path fill="none" stroke="rgb(0,0,0)" paint-order="fill stroke markers" d=" M 344.0389691687214 591.8534071962114 C 344.0389691687214 594.0625461955345 342.24810816804455 595.8534071962114 340.0389691687214 595.8534071962114 C 337.82983016939824 595.8534071962114 336.0389691687214 594.0625461955345 336.0389691687214 591.8534071962114 C 336.0389691687214 589.6442681968882 337.82983016939824 587.8534071962114 340.0389691687214 587.8534071962114 C 342.24810816804455 587.8534071962114 344.0389691687214 589.6442681968882 344.0389691687214 591.8534071962114 Z" stroke-opacity="1" stroke-linecap="round" stroke-linejoin="round" stroke-miterlimit="10"/><text fill="rgb(68,68,68)" stroke="none" font-family="geogebra-sans-serif, sans-serif" font-size="16px" font-style="normal" font-weight="normal" text-decoration="normal" x="316" y="591" text-anchor="start" dominant-baseline="alphabetic" fill-opacity="1">C</text><path fill="rgb(68,68,68)" stroke="none" paint-order="stroke fill markers" d=" M 811.0724887805982 322.7555608539692 C 811.0724887805982 324.96469985329236 809.2816277799213 326.7555608539692 807.0724887805982 326.7555608539692 C 804.863349781275 326.7555608539692 803.0724887805982 324.96469985329236 803.0724887805982 322.7555608539692 C 803.0724887805982 320.54642185464604 804.863349781275 318.7555608539692 807.0724887805982 318.7555608539692 C 809.2816277799213 318.7555608539692 811.0724887805982 320.54642185464604 811.0724887805982 322.7555608539692 Z" fill-opacity="1"/><path fill="none" stroke="rgb(0,0,0)" paint-order="fill stroke markers" d=" M 811.0724887805982 322.7555608539692 C 811.0724887805982 324.96469985329236 809.2816277799213 326.7555608539692 807.0724887805982 326.7555608539692 C 804.863349781275 326.7555608539692 803.0724887805982 324.96469985329236 803.0724887805982 322.7555608539692 C 803.0724887805982 320.54642185464604 804.863349781275 318.7555608539692 807.0724887805982 318.7555608539692 C 809.2816277799213 318.7555608539692 811.0724887805982 320.54642185464604 811.0724887805982 322.7555608539692 Z" stroke-opacity="1" stroke-linecap="round" stroke-linejoin="round" stroke-miterlimit="10"/><text fill="rgb(68,68,68)" stroke="none" font-family="geogebra-sans-serif, sans-serif" font-size="16px" font-style="normal" font-weight="normal" text-decoration="normal" x="824" y="341" text-anchor="start" dominant-baseline="alphabetic" fill-opacity="1">D</text><path fill="rgb(68,68,68)" stroke="none" paint-order="stroke fill markers" d=" M 810.8368943956602 592.2614686409019 C 810.8368943956602 594.470607640225 809.0460333949834 596.2614686409019 806.8368943956602 596.2614686409019 C 804.6277553963371 596.2614686409019 802.8368943956602 594.470607640225 802.8368943956602 592.2614686409019 C 802.8368943956602 590.0523296415787 804.6277553963371 588.2614686409019 806.8368943956602 588.2614686409019 C 809.0460333949834 588.2614686409019 810.8368943956602 590.0523296415787 810.8368943956602 592.2614686409019 Z" fill-opacity="1"/><path fill="none" stroke="rgb(0,0,0)" paint-order="fill stroke markers" d=" M 810.8368943956602 592.2614686409019 C 810.8368943956602 594.470607640225 809.0460333949834 596.2614686409019 806.8368943956602 596.2614686409019 C 804.6277553963371 596.2614686409019 802.8368943956602 594.470607640225 802.8368943956602 592.2614686409019 C 802.8368943956602 590.0523296415787 804.6277553963371 588.2614686409019 806.8368943956602 588.2614686409019 C 809.0460333949834 588.2614686409019 810.8368943956602 590.0523296415787 810.8368943956602 592.2614686409019 Z" stroke-opacity="1" stroke-linecap="round" stroke-linejoin="round" stroke-miterlimit="10"/><text fill="rgb(68,68,68)" stroke="none" font-family="geogebra-sans-serif, sans-serif" font-size="16px" font-style="normal" font-weight="normal" text-decoration="normal" x="814" y="621" text-anchor="start" dominant-baseline="alphabetic" fill-opacity="1">E</text><path fill="rgb(68,68,68)" stroke="none" paint-order="stroke fill markers" d=" M 344.2745635536593 322.3474994092788 C 344.2745635536593 324.55663840860194 342.48370255298244 326.3474994092788 340.2745635536593 326.3474994092788 C 338.0654245543361 326.3474994092788 336.2745635536593 324.55663840860194 336.2745635536593 322.3474994092788 C 336.2745635536593 320.1383604099556 338.0654245543361 318.3474994092788 340.2745635536593 318.3474994092788 C 342.48370255298244 318.3474994092788 344.2745635536593 320.1383604099556 344.2745635536593 322.3474994092788 Z" fill-opacity="1"/><path fill="none" stroke="rgb(0,0,0)" paint-order="fill stroke markers" d=" M 344.2745635536593 322.3474994092788 C 344.2745635536593 324.55663840860194 342.48370255298244 326.3474994092788 340.2745635536593 326.3474994092788 C 338.0654245543361 326.3474994092788 336.2745635536593 324.55663840860194 336.2745635536593 322.3474994092788 C 336.2745635536593 320.1383604099556 338.0654245543361 318.3474994092788 340.2745635536593 318.3474994092788 C 342.48370255298244 318.3474994092788 344.2745635536593 320.1383604099556 344.2745635536593 322.3474994092788 Z" stroke-opacity="1" stroke-linecap="round" stroke-linejoin="round" stroke-miterlimit="10"/><text fill="rgb(68,68,68)" stroke="none" font-family="geogebra-sans-serif, sans-serif" font-size="16px" font-style="normal" font-weight="normal" text-decoration="normal" x="332" y="309" text-anchor="start" dominant-baseline="alphabetic" fill-opacity="1">F</text><path fill="rgb(68,68,68)" stroke="none" paint-order="stroke fill markers" d=" M 577.7913233595978 187.7985762381577 C 577.7913233595978 190.00771523748085 576.0004623589209 191.7985762381577 573.7913233595978 191.7985762381577 C 571.5821843602746 191.7985762381577 569.7913233595978 190.00771523748085 569.7913233595978 187.7985762381577 C 569.7913233595978 185.5894372388345 571.5821843602746 183.7985762381577 573.7913233595978 183.7985762381577 C 576.0004623589209 183.7985762381577 577.7913233595978 185.5894372388345 577.7913233595978 187.7985762381577 Z" fill-opacity="1"/><path fill="none" stroke="rgb(0,0,0)" paint-order="fill stroke markers" d=" M 577.7913233595978 187.7985762381577 C 577.7913233595978 190.00771523748085 576.0004623589209 191.7985762381577 573.7913233595978 191.7985762381577 C 571.5821843602746 191.7985762381577 569.7913233595978 190.00771523748085 569.7913233595978 187.7985762381577 C 569.7913233595978 185.5894372388345 571.5821843602746 183.7985762381577 573.7913233595978 183.7985762381577 C 576.0004623589209 183.7985762381577 577.7913233595978 185.5894372388345 577.7913233595978 187.7985762381577 Z" stroke-opacity="1" stroke-linecap="round" stroke-linejoin="round" stroke-miterlimit="10"/><text fill="rgb(68,68,68)" stroke="none" font-family="geogebra-sans-serif, sans-serif" font-size="16px" font-style="normal" font-weight="normal" text-decoration="normal" x="578" y="180" text-anchor="start" dominant-baseline="alphabetic" fill-opacity="1">G</text><path fill="rgb(68,68,68)" stroke="none" paint-order="stroke fill markers" d=" M 577.3201345897218 726.8103918120228 C 577.3201345897218 729.0195308113459 575.5292735890449 730.8103918120228 573.3201345897218 730.8103918120228 C 571.1109955903986 730.8103918120228 569.3201345897218 729.0195308113459 569.3201345897218 726.8103918120228 C 569.3201345897218 724.6012528126996 571.1109955903986 722.8103918120228 573.3201345897218 722.8103918120228 C 575.5292735890449 722.8103918120228 577.3201345897218 724.6012528126996 577.3201345897218 726.8103918120228 Z" fill-opacity="1"/><path fill="none" stroke="rgb(0,0,0)" paint-order="fill stroke markers" d=" M 577.3201345897218 726.8103918120228 C 577.3201345897218 729.0195308113459 575.5292735890449 730.8103918120228 573.3201345897218 730.8103918120228 C 571.1109955903986 730.8103918120228 569.3201345897218 729.0195308113459 569.3201345897218 726.8103918120228 C 569.3201345897218 724.6012528126996 571.1109955903986 722.8103918120228 573.3201345897218 722.8103918120228 C 575.5292735890449 722.8103918120228 577.3201345897218 724.6012528126996 577.3201345897218 726.8103918120228 Z" stroke-opacity="1" stroke-linecap="round" stroke-linejoin="round" stroke-miterlimit="10"/><text fill="rgb(68,68,68)" stroke="none" font-family="geogebra-sans-serif, sans-serif" font-size="16px" font-style="normal" font-weight="normal" text-decoration="normal" x="555" y="745" text-anchor="start" dominant-baseline="alphabetic" fill-opacity="1">H</text></g></svg>